<?xml version="1.0" encoding="UTF-8" standalone="no"?>
<!-- Created with Inkscape (http://www.inkscape.org/) -->

<svg
   width="78mm"
   height="105mm"
   viewBox="0 0 78 105"
   version="1.1"
   id="svg5118"
   inkscape:version="1.1.1 (3bf5ae0d25, 2021-09-20)"
   sodipodi:docname="cv_icon.svg"
   xmlns:inkscape="http://www.inkscape.org/namespaces/inkscape"
   xmlns:sodipodi="http://sodipodi.sourceforge.net/DTD/sodipodi-0.dtd"
   xmlns="http://www.w3.org/2000/svg"
   xmlns:svg="http://www.w3.org/2000/svg">
  <sodipodi:namedview
     id="namedview5120"
     pagecolor="#ffffff"
     bordercolor="#111111"
     borderopacity="1"
     inkscape:pageshadow="0"
     inkscape:pageopacity="0"
     inkscape:pagecheckerboard="1"
     inkscape:document-units="mm"
     showgrid="false"
     inkscape:zoom="1.2810466"
     inkscape:cx="377.42578"
     inkscape:cy="116.70146"
     inkscape:window-width="1920"
     inkscape:window-height="1027"
     inkscape:window-x="-8"
     inkscape:window-y="-8"
     inkscape:window-maximized="1"
     inkscape:current-layer="layer1" />
  <defs
     id="defs5115" />
  <g
     inkscape:label="Layer 1"
     inkscape:groupmode="layer"
     id="layer1">
    <path
       style="fill:#000000;stroke-width:0.10673"
       d="m 6.3760185,104.95444 c -2.2112823,-0.0761 -2.3040781,-0.0883 -2.886562,-0.37849 -1.1475346,-0.57174 -2.1539873,-1.56319 -3.01210343,-2.96719 L 2.3875e-5,100.82778 0.00597387,54.031764 c 0.00297,-25.737813 0.044797,-47.4764363 0.09237,-48.3080598 0.083648,-1.4602688 0.1001101,-1.5379741 0.4811052,-2.2693437 C 1.0838746,2.486031 1.9464309,1.5257966 2.7903448,0.99309211 c 1.3490728,-0.8515826 0.9255896,-0.8019296 7.6239362,-0.8939014 3.302235,-0.045339 15.62648,-0.086199 27.3872,-0.090808 L 59.184623,-1.7296699e-5 59.788861,0.26954171 c 0.787402,0.3512733 1.580998,1.00835779 3.971291,3.28814399 2.814391,2.6842916 11.817609,11.7543353 12.801871,12.8968943 1.207625,1.401847 1.235049,1.486194 1.339093,4.119276 0.04797,1.212913 0.08979,19.661694 0.09296,40.997308 l 0.0059,38.792016 -0.488896,1.0071 c -0.571077,1.17639 -1.672574,2.44162 -2.632466,3.02377 l -0.59404,0.36027 -2.153868,0.0922 c -2.711011,0.11597 -62.6617188,0.21439 -65.7544582,0.10797 z m 66.9972755,-4.53398 c 0.174383,-0.29778 0.212182,-0.674984 0.282025,-2.813904 0.0444,-1.358513 0.08365,-18.926206 0.08722,-39.039315 l 0.0069,-36.569291 -7.677763,-0.05419 C 60.81825,21.90667 58.239719,21.85068 57.905583,21.766453 57.188043,21.585606 56.762518,21.177745 56.557698,20.47451 56.408192,19.961202 56.380997,18.873865 56.347509,12.069394 L 56.309058,4.2538607 30.784831,4.3165456 C 13.736691,4.3584155 5.1656683,4.4157717 4.9747545,4.4892569 4.5552654,4.650722 4.4747194,5.0885824 4.3610512,7.8253717 4.1335166,13.303781 4.1794536,99.038056 4.4105072,100.08719 c 0.041328,0.18766 0.1538668,0.37571 0.2500918,0.41792 0.4095485,0.17962 6.989093,0.22249 36.893733,0.24036 l 31.617999,0.0189 z M 15.780618,87.475269 c -0.584467,-0.03869 -1.173462,-0.131019 -1.308895,-0.205201 -0.434444,-0.238002 -0.869563,-1.061044 -0.869563,-1.644823 0,-0.700341 0.202133,-1.140545 0.821278,-1.788519 l 0.521115,-0.545368 19.1741,0.005 c 10.545751,0.003 21.230365,0.04919 23.743573,0.103355 4.702746,0.101375 5.676939,0.192933 6.09283,0.572602 0.237366,0.216687 0.549778,1.136756 0.546498,1.609422 -0.003,0.45588 -0.326307,1.127688 -0.723398,1.503917 -0.284126,0.269205 -0.444107,0.321512 -1.208903,0.395235 -1.050328,0.101255 -45.253793,0.09608 -46.788635,-0.005 z M 14.319641,73.884906 c -0.213571,-0.221096 -0.462374,-0.581329 -0.5529,-0.800527 -0.371867,-0.900472 -0.08008,-2.061932 0.661444,-2.632665 l 0.379211,-0.291869 4.205942,-0.06918 c 5.708495,-0.09388 31.698673,-0.09118 38.530084,0.004 4.893997,0.06818 5.564727,0.09778 5.865741,0.258568 0.723179,0.386387 1.176326,1.394744 1.041736,2.318121 -0.05947,0.407672 -0.167732,0.584559 -0.644566,1.052776 l -0.573128,0.562779 H 38.970577 14.70796 L 14.319641,73.884926 Z M 34.058493,61.161815 C 31.700877,60.606979 29.57349,59.104531 27.902124,56.813933 27.25852,55.931866 26.750943,54.918001 26.357182,53.727918 24.611128,48.4508 27.486689,42.264432 32.678062,40.129427 c 1.319013,-0.542459 2.331482,-0.719366 3.718296,-0.649693 1.729017,0.08688 3.060974,0.499469 4.671556,1.447091 1.89456,1.114701 2.703578,2.137614 2.572644,3.252825 -0.124828,1.063174 -0.809236,1.794608 -1.837681,1.963967 -0.583692,0.09608 -0.969901,-0.07818 -2.09917,-0.947342 -0.504524,-0.388316 -1.106918,-0.803606 -1.338666,-0.922867 -1.419163,-0.730334 -3.381721,-0.699032 -4.978686,0.07938 -0.792217,0.386166 -2.091904,1.693761 -2.530065,2.545466 -0.522622,1.015875 -0.728125,2.040548 -0.720197,3.591064 0.0112,2.192281 0.51842,3.60545 1.735787,4.836203 2.186227,2.210287 5.615471,2.302385 7.910569,0.212449 1.02579,-0.934085 1.608937,-1.167948 2.421841,-0.971226 0.710047,0.171829 1.399707,0.822622 1.575864,1.487042 0.23812,0.898163 -0.06957,1.674186 -1.029972,2.597823 -1.073093,1.031991 -2.543903,1.857122 -4.175356,2.342385 -1.0268,0.305417 -3.535489,0.398614 -4.516332,0.16778 z m 20.562598,-0.03339 C 54.162989,60.897581 53.878635,60.374747 52.6422,57.489852 51.713042,55.321905 48.831902,48.240583 47.33916,44.455946 c -0.834756,-2.11643 -0.836203,-2.121829 -0.703595,-2.626307 0.179051,-0.681146 0.566329,-1.220796 1.088565,-1.516884 0.357843,-0.202871 0.549579,-0.237703 1.110388,-0.201681 1.332334,0.08558 1.491493,0.339358 3.853322,6.144068 2.032935,4.996355 2.896433,6.950184 3.017614,6.827943 0.05481,-0.05529 1.046255,-2.458357 2.203234,-5.340162 1.15699,-2.881805 2.245634,-5.553191 2.419223,-5.936418 0.58516,-1.291829 1.125275,-1.715137 2.188409,-1.715137 0.462105,0 0.665815,0.06429 1.078892,0.340248 0.280082,0.187135 0.601909,0.488632 0.715171,0.669979 0.453315,0.725805 0.07949,1.940312 -2.939397,9.548587 -2.281977,5.751183 -3.505677,8.690944 -4.01589,9.647643 -0.420441,0.78837 -0.809464,1.018035 -1.724469,1.018035 -0.394365,0 -0.779493,-0.07148 -1.009536,-0.187435 z M 71.407426,17.477609 c 0.121517,-0.07754 -0.448657,-0.705454 -2.603537,-2.867171 -3.191432,-3.201556 -7.894643,-7.7498769 -8.013802,-7.7498769 -0.0448,0 -0.112241,0.2965054 -0.149794,0.6589011 -0.0889,0.8581525 -0.08801,6.3516428 9.91e-4,8.4357228 l 0.06977,1.624984 5.270175,-0.0016 c 3.047239,-9.65e-4 5.335807,-0.04352 5.425777,-0.100919 z"
       id="path5191" />
  </g>
</svg>
