<?xml version="1.0" encoding="UTF-8" standalone="no"?>
<!-- Created with Inkscape (http://www.inkscape.org/) -->

<svg
   width="200mm"
   height="200mm"
   viewBox="0 0 200 200"
   version="1.1"
   id="svg71"
   inkscape:export-filename="C:\Users\Dell\Desktop\Skola\3.rocnik\Webovska grafika\cv\bitmap.png"
   inkscape:export-xdpi="96"
   inkscape:export-ydpi="96"
   inkscape:version="1.1.1 (3bf5ae0d25, 2021-09-20)"
   sodipodi:docname="logo_final.svg"
   xmlns:inkscape="http://www.inkscape.org/namespaces/inkscape"
   xmlns:sodipodi="http://sodipodi.sourceforge.net/DTD/sodipodi-0.dtd"
   xmlns="http://www.w3.org/2000/svg"
   xmlns:svg="http://www.w3.org/2000/svg">
  <sodipodi:namedview
     id="namedview73"
     pagecolor="#ffffff"
     bordercolor="#111111"
     borderopacity="1"
     inkscape:pageshadow="0"
     inkscape:pageopacity="0"
     inkscape:pagecheckerboard="false"
     inkscape:document-units="mm"
     showgrid="false"
     inkscape:zoom="0.90583672"
     inkscape:cx="336.1533"
     inkscape:cy="502.85001"
     inkscape:window-width="1920"
     inkscape:window-height="1027"
     inkscape:window-x="-8"
     inkscape:window-y="-8"
     inkscape:window-maximized="1"
     inkscape:current-layer="layer1">
    <inkscape:grid
       type="xygrid"
       id="grid75" />
  </sodipodi:namedview>
  <defs
     id="defs68" />
  <g
     inkscape:label="Layer 1"
     inkscape:groupmode="layer"
     id="layer1">
    <g
       id="g768"
       transform="translate(-9.0516439,-28.878858)">
      <path
         id="circle15088"
         style="fill:#ffc914;fill-opacity:1;stroke-width:1.66667"
         d="M 412.16211,109.14844 A 377.95276,377.95276 0 0 0 34.210938,487.10156 377.95276,377.95276 0 0 0 412.16211,865.05469 377.95276,377.95276 0 0 0 790.11523,487.10156 377.95276,377.95276 0 0 0 412.16211,109.14844 Z m -68.54102,518.15039 h 34.56446 v 114.71875 h -34.56446 z m -160.9375,10.94726 h 34.40821 l 15.25,57.00782 10.40039,-43.55664 13.52929,49.26562 -11.18359,41.05469 h -31.35742 z m 61.54493,0 h 34.87695 l 26.58789,103.77149 h -33 z m 61.77734,0 h 31.51562 l -28.15234,98.37696 -14.07617,-55.28711 z m 87.81836,20.72461 H 412.75 l 20.80078,20.72266 v 62.32422 H 398.9082 v -62.32422 h -15.25 v -10.47852 z m 75.30664,0 h 13.8418 v 83.04688 h -13.8418 L 448.4082,721.29492 v -41.60156 z m 19.31641,0 h 29.32421 l 20.72461,20.72266 v 29.01172 h -50.04882 v -14.4668 h 18.2207 v -14.54492 h -18.2207 z m 55.52148,0 h 34.48633 l 11.65234,33.78125 -15.48437,42.30664 z m 64.4375,0 h 33.23437 L 599.49219,770.95312 H 566.33398 Z M 488.44727,722.625 h 46.45117 v 8.99219 l -10.32227,10.40039 h -36.1289 z"
         transform="scale(0.26458333)" />
      <path
         id="path15090"
         style="fill:#2e282a;fill-opacity:1;stroke-width:1.73067"
         d="m 407.59375,179.05273 -0.002,0.0117 c -2.09511,-0.0113 -4.20122,-0.007 -6.31836,0.008 v -0.002 c -53.82282,0.41919 -100.7085,10.09976 -116.65625,24.08594 -0.4362,-1.0975 -1.53152,-1.97852 -2.4961,-1.97852 -0.99802,0 -1.32361,1.22345 -0.7207,2.72071 0.7666,1.90371 0.33002,2.44313 -1.45312,1.79101 -1.40236,-0.5128 -3.50413,0.16129 -4.66993,1.5 -1.16575,1.33856 -3.67383,2.43555 -5.57422,2.43555 -1.90044,0 -4.6981,1.1836 -6.21679,2.63086 -1.51873,1.44722 -4.05222,2.20587 -5.63281,1.68555 -2.03827,-0.67098 -1.87423,-0.2084 0.5664,1.59179 1.90934,1.40833 2.45436,2.53907 1.22461,2.53907 -1.21893,0 -1.68981,0.81132 -1.04687,1.80273 0.70167,1.08197 -0.14397,1.58673 -2.11328,1.26562 -1.80424,-0.29441 -4.29173,-2.05367 -5.5293,-3.9121 -1.4538,-2.18317 -2.13656,-2.48304 -1.92774,-0.84571 0.70477,5.53217 -2.3005,11.61596 -5.29101,10.70899 -2.45719,-0.74529 -2.51745,-0.6037 -0.35352,0.85547 2.24198,1.51181 2.18236,2.17251 -0.44336,4.9375 -1.66756,1.75604 -3.03125,4.16576 -3.03125,5.35351 0,1.18764 -1.10301,1.75667 -2.45117,1.26367 -1.58317,-0.57891 -3.53891,1.40357 -5.52539,5.60157 -2.18094,4.60917 -3.8759,6.20717 -5.82031,5.49609 -1.80204,-0.65892 -2.30144,-0.32449 -1.45899,0.97461 0.71241,1.09848 0.31724,1.97656 -0.89062,1.97656 -1.19535,0 -1.6662,0.4861 -1.04492,1.07813 2.33748,3.24102 -25.21928,78.60136 -29.58399,89.73437 -4.23432,6.27118 -8.71556,14.44134 -9.95898,18.1582 -1.24328,3.71687 -2.87742,8.28032 -3.62891,10.13868 -3.07007,7.59161 -3.28,9.52292 -1.51953,13.95117 1.01269,2.54732 3.48555,6.30624 5.49414,8.34961 2.1529,2.19027 3.1979,4.83846 2.54688,6.45508 -1.40871,3.4984 1.77113,9.25781 5.11132,9.25781 3.25781,0 -9.56558,23.58529 -24.17187,44.45898 -12.65904,18.09098 -13.26722,22.69707 -4.08984,30.94531 3.48219,3.1296 7.8693,5.68934 9.75,5.68946 1.88076,0 3.41992,0.3904 3.41992,0.86719 0,0.4769 -3.98991,4.64777 -8.86524,9.26953 -8.3992,7.96214 -11.23157,11.7306 -6.90039,9.17968 2.57979,-1.51948 0.24405,6.21369 -2.58593,8.56055 -3.02094,2.50364 -2.99066,24.49805 0.0293,24.49805 2.27225,0 2.76633,0.9023 3.00391,5.49023 0.0571,1.16156 1.93668,4.53238 4.16797,7.49024 2.23135,2.95789 4.05468,6.18858 4.05468,7.17968 0,0.9913 1.56861,1.80274 3.48438,1.80274 1.91592,0 4.3371,1.52047 5.38086,3.37891 2.27856,4.05735 1.26775,4.34671 -2.5332,0.7246 -3.04067,-2.89761 -2.96938,-3.06025 -3.47266,7.8418 -0.28573,6.18282 -5.65509,11.02486 -9.15625,8.25586 -1.45897,-1.15385 -3.2317,-1.50548 -3.93945,-0.78125 -0.70772,0.72423 -0.28339,1.65745 0.9414,2.07422 1.22487,0.41692 1.75234,1.48977 1.17188,2.38477 -0.64944,1.00137 -2.0172,0.86739 -3.55664,-0.34961 -2.93348,-2.32007 -3.0907,-1.57633 -0.85352,4.03125 1.19263,2.98892 0.91835,5.11992 -0.99023,7.71679 -1.45013,1.97273 -2.06784,4.46201 -1.37305,5.53321 0.73686,1.13601 0.48568,1.49297 -0.59961,0.85351 -2.88548,-1.69946 -3.8849,2.87945 -2.19141,10.03516 1.42874,6.03636 0.4309,10.82704 -1.29687,6.22656 -0.82156,-2.18755 -5.08418,-0.5595 -11.60742,4.43359 -4.68416,3.58538 -5.10843,1.58013 -0.98047,-4.63281 2.02469,-3.04739 4.6386,-5.1896 5.80859,-4.76172 1.16988,0.42747 2.125,-0.29048 2.125,-1.5957 0,-4.14202 -2.76957,-2.58642 -8.26172,4.63867 -5.40604,7.11179 -6.77687,11.57223 -3.55664,11.57227 2.20109,0 2.35707,6.21658 0.1875,7.49414 -1.90511,1.12214 -4.16198,-3.77383 -2.74609,-5.95703 0.5483,-0.84533 0.17345,-1.53711 -0.82813,-1.53711 -1.00191,0 -1.42954,-0.9739 -0.95117,-2.16211 0.47838,-1.18817 -0.33819,-3.65856 -1.8164,-5.49024 -2.49782,-3.09513 -2.64047,-2.77094 -2.00196,4.56641 0.37796,4.34249 1.2262,8.72394 1.88282,9.73633 0.65661,1.01246 -0.0583,4.22786 -1.58594,7.14648 -3.25157,6.21139 -3.39884,7.0433 -1.00391,5.63281 0.97501,-0.57463 1.78351,-0.05 1.80078,1.16602 0.0189,1.62516 0.52385,1.53998 1.90625,-0.32227 1.67173,-2.25275 1.79293,-2.25275 1.08203,0 -0.4394,1.39378 -1.6481,2.36011 -2.68554,2.14649 -2.09745,-0.43147 -4.7954,5.99012 -3.16797,7.54101 1.5109,1.43982 -2.60281,5.64558 -4.45508,4.55469 -0.8646,-0.5091 -1.57031,0.16845 -1.57031,1.50391 0,1.33534 -1.79633,3.60637 -3.99024,5.04883 -3.86056,2.5381 -3.73842,2.61339 3.81836,2.31836 4.64187,-0.18104 8.09716,0.49711 8.52149,1.67382 0.45535,1.26218 -0.60538,1.64998 -2.93164,1.07032 -3.11532,-0.77628 -3.64649,-0.12847 -3.64649,4.45507 0,3.84242 0.62797,5.0063 2.21485,4.09766 1.28919,-0.73818 1.10371,0.0621 -0.44336,1.90625 -2.42079,2.89013 -2.37082,3.0725 0.53711,2.0332 1.9254,-0.68813 2.76084,-0.47537 2.10546,0.53516 -0.59794,0.92202 -3.03219,1.21132 -5.41015,0.64258 -2.63497,-0.63012 -4.32227,-0.30338 -4.32227,0.83789 0,1.03007 1.99201,1.87305 4.42969,1.87305 3.40638,0 4.43947,0.8792 4.46094,3.80078 0.0189,3.07389 0.35418,3.31496 1.74414,1.26562 1.0326,-1.52269 1.72886,-1.73048 1.74609,-0.52148 0.0151,1.10664 -0.6818,2.43071 -1.54883,2.9414 -2.712,1.59731 -4.11423,9.83247 -1.89648,11.13868 3.36718,8.033 -5.19365,19.27322 13.32422,25.15039 0.85772,-1.32254 1.72938,-1.32254 3.11719,0 1.22151,1.16409 26.42453,1.67583 74.23632,1.76367 L 182.68359,638.24609 h 34.40821 l 15.25,57.00782 10.40039,-43.55664 13.52929,49.26562 -11.13476,40.875 c 10.82793,0.0257 20.36138,0.0252 27.51758,0.0371 l -28.42578,-103.6289 h 34.87695 l 26.42383,103.13477 c 1.31517,-0.20285 2.01466,-0.4581 1.86328,-0.83398 -0.43166,-3.35893 -0.19237,-6.54841 0.52539,-9.61915 l -12.625,-49.59179 10.71289,-43.08985 h 31.51562 l -22.61132,79.01172 c 6.99726,-9.09153 17.7761,-17.27242 28.71093,-25.51562 v -64.44336 h 34.56446 v 28.23633 c 1.01316,-2.67731 1.72107,-5.44155 1.9707,-8.33594 0.86933,0 1.6439,-1.33089 1.7207,-2.95703 0.20901,-3.65481 3.87556,-7.08249 2.96485,-10.64844 1.21893,-1.25186 2.21484,-3.34926 2.21484,-4.66016 0,-1.52409 -1.17711,-0.99661 -3.26367,1.45899 -2.51293,2.95748 -3.59397,3.32845 -4.70508,1.61523 -0.95743,-1.47624 -0.75432,-1.81943 0.60352,-1.01953 1.29399,0.76203 2.04687,-0.074 2.04687,-2.27344 0,-2.17685 1.16013,-3.48837 3.10156,-3.5039 2.65142,-0.0265 2.71795,-0.26387 0.44532,-1.66406 -1.97243,-1.21478 -0.83013,-1.67598 4.42968,-1.78321 3.90033,-0.079 8.68851,-0.84041 10.63868,-1.6914 2.5432,-1.10933 0.66314,-1.43451 -6.6504,-1.14844 -10.04344,0.39311 -10.19708,0.32997 -10.19531,-4.2461 0.002,-5.53534 3.494,-6.33905 3.67383,-0.8457 0.11452,3.48159 0.23497,3.5287 1.46094,0.54688 1.19739,-2.91296 1.45969,-2.95906 2.48047,-0.42383 0.62725,1.55811 2.4865,2.83398 4.13086,2.83398 2.784,0 2.78761,-0.21264 0.0566,-3.08984 -3.63772,-3.83055 -3.71428,-5.35742 -0.27344,-5.35742 1.61424,0 2.6582,-1.5707 2.6582,-3.9961 0,-2.19783 1.6405,-5.98589 3.64649,-8.41601 l 3.64648,-4.41602 -3.64648,-3.73242 c -4.18039,-4.27604 -4.37292,-5.39991 -1.73242,-10.10156 1.47744,-2.63089 1.28181,-4.07528 -0.86133,-6.33203 -1.97091,-2.07538 -2.22668,-3.44984 -0.88086,-4.73243 1.34596,-1.2825 1.14755,-2.47137 -0.6836,-4.10156 -2.24919,-2.0022 -2.16181,-2.72945 0.68164,-5.6875 1.79343,-1.86576 4.68168,-4.94925 6.41993,-6.85156 1.73805,-1.9022 2.54643,-2.56766 1.79687,-1.47852 -0.9148,1.3293 0.0709,1.98243 2.99805,1.98243 2.39837,0 4.77882,-1.03938 5.28906,-2.30664 0.65885,-1.6362 2.10101,-1.89101 4.97852,-0.87696 2.22875,0.78543 5.17024,1.05685 6.53711,0.60156 1.93012,-0.64338 2.23693,0.3636 1.36718,4.50782 -1.04628,4.98531 -0.87841,5.21176 2.54297,3.46679 2.01404,-1.02841 4.05179,-1.49408 4.5293,-1.03906 0.47773,0.45479 -0.78688,1.32736 -2.81055,1.93945 -4.69387,1.41967 -4.78392,4.26368 -0.13476,4.26368 1.95012,0 3.54687,0.74229 3.54687,1.64843 0,1.07044 -1.59407,1.07044 -4.54883,0 -5.76476,-2.08871 -5.518,-2.12388 -6.76562,0.97461 -0.68984,1.71315 -0.34572,2.20245 0.99609,1.41211 1.41007,-0.8304 1.6817,-0.19643 0.86328,2.02344 -1.15226,3.12559 -1.10256,3.12383 1.47852,-0.0566 2.07228,-2.55171 3.14518,-2.83604 4.79101,-1.26758 1.64584,1.56839 1.6016,2.02344 -0.19726,2.02344 -1.27442,0 -1.89198,1.0532 -1.37305,2.3418 0.66187,1.64364 -0.076,2.08886 -2.4707,1.49218 -1.87718,-0.46805 -3.41211,-0.0895 -3.41211,0.83985 0,0.92923 1.68378,2.10825 3.74219,2.62109 2.70247,0.67347 3.9886,0.0249 4.63672,-2.33789 0.4936,-1.79826 1.57941,-3.26758 2.41015,-3.26758 0.83089,0 1.06022,1.11594 0.50977,2.48242 -1.17653,2.92173 5.64903,11.91333 7.21289,9.50196 0.5859,-0.90323 -0.34694,-2.42478 -2.07422,-3.38282 -1.7269,-0.95811 -2.17067,-1.76568 -0.98242,-1.79296 1.18832,-0.0265 1.70384,-1.19213 1.14258,-2.58594 -1.19082,-2.95733 1.31884,-3.36346 4.14453,-0.67383 l 4.35547,-3.32813 c 3.51394,-2.68602 5.73816,-3.24483 8.72656,-2.1914 2.20535,0.77752 3.26679,1.85155 2.36133,2.38476 -0.90535,0.53364 -4.82971,1.51799 -8.72266,2.18946 l -6.49023,1.12109 c 1.42261,0.93562 5.96977,1.4104 10.76757,1.09375 7.06507,-0.46613 9.08224,-0.0438 9.24219,1.9375 0.14702,1.81361 0.43738,1.6936 1.01758,-0.42187 0.44579,-1.62611 1.97494,-2.95703 3.40039,-2.95703 2.04227,0 2.19064,0.71818 0.69531,3.38085 -1.04368,1.85847 -3.27379,3.37891 -4.95508,3.37891 -1.68136,0 -4.10403,1.59462 -5.38085,3.54297 -1.99046,3.0373 -2.61883,3.19075 -4.41407,1.08008 -3.6689,-4.31354 -7.40297,-4.47333 -9.41992,-0.40039 -1.68287,3.39832 -1.44978,3.80966 2.04492,3.60742 2.71529,-0.15685 3.6344,-1.01859 2.95117,-2.76367 -0.8567,-2.18831 -0.57784,-2.21151 2.03907,-0.18164 1.75925,1.36395 2.61076,3.60962 2.03125,5.34961 -0.54902,1.649 -0.17534,3.48114 0.82812,4.07226 1.03896,0.61183 1.41774,0.0654 0.88086,-1.26758 -0.69876,-1.73518 0.91351,-2.41095 6.22461,-2.60937 3.97149,-0.14816 7.16992,0.51631 7.16992,1.49219 0,1.15521 1.02702,1.21281 2.98633,0.16796 2.63883,-1.40726 5.49833,-0.69166 11.14453,2.78516 0.45933,0.28347 -0.3391,1.22145 -1.77344,2.08594 -2.13104,1.28432 -1.95981,1.61412 0.9375,1.79883 1.95024,0.12321 4.11632,0.14236 4.8125,0.043 0.69623,-0.099 0.74542,1.14282 0.11133,2.75781 -1.01616,2.58425 -0.79137,2.65448 1.87891,0.58398 1.66866,-1.29384 3.4884,-1.92095 4.04297,-1.39258 0.55472,0.52868 -1.4587,2.17788 -4.47461,3.66407 -6.64177,3.27326 -6.90327,4.15521 -1.05078,3.54296 2.43772,-0.25473 4.43164,0.19052 4.43164,0.99219 0,0.80149 1.19556,1.45899 2.6582,1.45899 1.4626,0 2.66016,-1.18604 2.66016,-2.63477 0,-1.65743 -0.82223,-2.16362 -2.2168,-1.36523 -1.76954,1.01204 -1.77207,0.74494 -0.0176,-1.32227 1.20892,-1.42541 1.74796,-3.02418 1.19531,-3.55078 -0.55283,-0.52671 0.73166,-1.47944 2.85352,-2.12109 4.62331,-1.39839 6.77426,0.32369 7.43945,5.96093 0.58591,4.96638 3.39857,7.36706 5.29688,4.52149 0.91359,-1.36951 1.35776,-1.0682 1.375,0.93359 0.0151,1.62607 -0.77102,2.95703 -1.7461,2.95703 -2.23695,0 -2.3374,6.22618 -0.12109,7.53125 0.90773,0.5342 2.15124,0.19838 2.76367,-0.74609 0.61263,-0.94435 0.22084,-1.7168 -0.86914,-1.7168 -1.0902,0 -1.47399,-0.78053 -0.85547,-1.73437 0.61833,-0.95388 2.06172,-1.62276 3.20703,-1.48828 4.41283,0.51908 6.6782,-0.22497 5.62696,-1.84571 -0.60246,-0.92919 -0.24891,-1.68945 0.7832,-1.68945 1.03261,0 1.9389,1.33089 2.01563,2.95703 0.0877,1.85851 0.48012,2.15031 1.05468,0.78711 0.50257,-1.19282 0.0447,-3.16307 -1.01172,-4.37891 -1.26648,-1.45409 -1.27372,-2.90582 -0.31054,-3.73437 0.50638,-0.0503 1.13901,-0.24463 1.85742,-0.67969 0.13493,-0.0113 0.27149,-0.0195 0.41602,-0.0195 -0.11188,-0.0189 -0.2012,-0.0304 -0.30665,-0.0508 3.34383,-2.11094 8.29568,-9.33222 9.52735,-30.71289 -2.57734,-10.5535 -1.93812,-13.84447 3.29883,-16.97656 4.85302,-2.90223 5.06917,-2.87742 9.64062,1.16211 3.94677,3.48752 4.31615,4.54481 2.37695,6.77148 -1.26364,1.451 -1.66161,2.63477 -0.88476,2.63477 0.77699,0 -0.45972,1.90343 -2.75,4.22656 -4.48781,4.55236 -2.8117,5.71002 2.70312,1.86719 1.85968,-1.29578 5.20955,-2.04207 7.44336,-1.65625 2.23374,0.386 3.89739,0.11593 3.69727,-0.59961 -0.20032,-0.71622 0.23158,-2.96444 0.95898,-4.99805 1.15204,-3.22084 2.28238,-3.59007 8.77149,-2.85352 5.74053,0.65159 6.97243,0.38465 5.36718,-1.16015 -1.14571,-1.10294 -4.11189,-2.00586 -6.59179,-2.00586 -3.5887,0 -4.20589,-0.55908 -3.02539,-2.74414 0.81581,-1.50992 2.11656,-5.78509 2.89258,-9.50196 0.81932,-3.92409 1.71859,-5.50948 2.14257,-3.77929 0.40139,1.63869 3.02347,4.10904 5.82618,5.49023 6.05238,2.98269 8.5245,3.24823 5.76367,0.61719 -1.09414,-1.04247 -1.51651,-3.06891 -0.93946,-4.50195 0.68882,-1.71058 0.33818,-2.18487 -1.02343,-1.38282 -1.14078,0.67189 -2.07618,0.41963 -2.07617,-0.55859 0,-2.44399 6.57578,-1.28319 10.39843,1.83594 1.72475,1.40738 4.27827,2.58997 5.67578,2.6289 1.39752,0.0397 4.64951,0.60702 7.22461,1.26368 6.43457,1.64054 7.8007,-1.41593 1.92969,-4.31641 -5.97267,-2.95075 -11.04492,-6.92448 -11.04492,-8.6543 0,-0.72268 2.04186,-1.3164 4.53711,-1.3164 2.49524,0 4.0596,-0.73677 3.47461,-1.63868 -0.58462,-0.90206 0.90285,-2.11214 3.30859,-2.6875 2.40582,-0.57532 5.82931,-2.59839 7.60742,-4.49609 3.1214,-3.33162 2.96788,-3.32238 -4.47265,0.26953 -8.49585,4.10155 -12.46583,3.61939 -4.41797,-0.53711 l 5.0332,-2.60156 -4.82226,-0.0664 c -3.55688,-0.0499 -4.54976,-0.73681 -3.79102,-2.62109 0.76199,-1.89226 0.17586,-2.28762 -2.26953,-1.5293 -2.62039,0.8126 -2.77217,0.66552 -0.73633,-0.70898 1.75457,-1.1828 3.6567,-1.17031 6.0293,0.0391 2.85252,1.45489 3.27554,1.29413 2.38867,-0.9082 -0.5929,-1.47213 -0.34883,-3.10675 0.54101,-3.63086 0.88982,-0.52415 1.22766,-1.92332 0.75,-3.10938 -0.47772,-1.18601 0.75348,-3.93848 2.73633,-6.11718 2.85823,-3.1406 3.60352,-3.38232 3.60352,-1.16797 0,1.53596 1.57788,4.29547 3.50586,6.13281 1.98731,1.89381 3.04638,4.4849 2.44336,5.98242 -0.58526,1.45293 -0.3661,2.51922 0.48437,2.3711 4.13103,-0.71872 5.97657,0.45481 5.97656,3.79296 0,2.01336 -0.47672,3.20502 -1.06054,2.64844 -1.3344,-1.2717 -14.89258,5.35368 -14.89258,7.27735 0,0.78032 2.19159,0.3268 4.87305,-1.00586 2.68146,-1.33293 6.63514,-2.42775 8.7832,-2.43164 2.14798,-0.004 5.93251,-0.89208 8.41211,-1.96875 3.75636,-1.63102 5.10218,-1.44757 8.0625,1.10546 3.80825,3.28438 5.02848,1.24435 1.35156,-2.25976 -1.75309,-1.67063 -1.66255,-2.41565 0.44336,-3.66406 2.17814,-1.29128 2.25295,-2.16775 0.42774,-4.97461 -3.29485,-5.06616 -2.83543,-7.71562 0.85546,-4.92969 2.88904,2.18082 2.90269,2.06585 0.22266,-1.94336 -3.9411,-5.89625 -3.21614,-11.40398 1.99609,-15.14844 2.4231,-1.74081 3.80719,-3.73705 3.07422,-4.43554 -0.73296,-0.69857 -2.27583,-0.37178 -3.42968,0.72851 -3.86642,3.68474 -5.25827,2.05301 -4.05079,-4.75781 0.8261,-4.65997 0.56007,-6.75781 -0.85937,-6.75781 -1.13238,0 -1.79114,-1.33064 -1.46289,-2.95508 0.32844,-1.62444 1.97571,-2.95541 3.6582,-2.95703 1.68246,-0.002 3.0586,-0.76214 3.0586,-1.69141 0,-0.92927 -1.18164,-1.69539 -2.625,-1.70703 -1.44344,-0.0113 -2.49598,-0.38904 -2.33985,-0.84375 0.15647,-0.45483 -0.67546,-2.53822 -1.84961,-4.62891 -1.89921,-3.38188 -1.72447,-3.80273 1.5918,-3.80273 2.92093,0 3.48534,0.73127 2.60352,3.37891 -1.54334,4.63391 0.61858,4.28348 2.60351,-0.42188 1.28935,-3.05677 1.66682,-3.22122 1.93555,-0.84375 0.18406,1.62614 0.43644,3.84369 0.55859,4.92773 0.12208,1.08416 1.21665,2.28876 2.43555,2.67579 2.85857,0.90806 3.03982,-14.26823 0.25,-21.00977 -1.82873,-4.41917 -2.07183,-4.51661 -3.42188,-1.37695 -1.38096,3.21146 -1.45948,3.19116 -1.57812,-0.42188 -0.0688,-2.09076 0.47381,-3.80056 1.20508,-3.79883 1.40806,0.003 0.89448,-19.38609 -0.625,-23.60937 -0.78804,-2.18941 -1.09189,-2.18941 -2.54493,0 -1.37302,2.06921 -1.6581,1.975 -1.67968,-0.56836 -0.0113,-1.68079 -0.82375,-2.58801 -1.79883,-2.01367 -0.99783,0.58783 -1.77344,-0.76611 -1.77344,-3.09766 0,-2.27849 1.1956,-4.58039 2.6582,-5.11523 2.59174,-0.9478 3.32537,0.51417 2.84571,5.67968 -0.12926,1.39382 1.08879,0.25492 2.70703,-2.5332 1.61824,-2.78763 3.82521,-5.64213 4.90234,-6.3418 1.07758,-0.70023 0.0504,-1.08105 -2.28515,-0.8457 -3.25021,0.32769 -4.3202,-0.4439 -4.57422,-3.30273 -0.18255,-2.05198 0.69048,-4.10271 1.9375,-4.5586 1.34335,-0.49081 1.90046,0.0802 1.36914,1.40039 -0.49365,1.22642 0.27174,2.65623 1.70312,3.17969 2.00429,0.73297 2.49312,-0.28281 2.12696,-4.42578 -0.71853,-8.1357 -0.73414,-8.15814 -4.41797,-6.2793 -3.59426,1.83307 -7.02263,-0.49572 -3.65235,-2.48047 1.00679,-0.59289 1.39648,-1.74435 0.86719,-2.56054 -0.52928,-0.81612 -1.34457,-5.13697 -1.81055,-9.59961 -0.50766,-4.86208 -2.03367,-8.952 -3.81054,-10.20703 -1.62977,-1.15197 -2.38308,-2.65248 -1.66992,-3.33203 0.71312,-0.6796 2.04014,-0.11469 2.94726,1.25195 0.90709,1.36683 1.66286,1.8204 1.67578,1.00976 0.0113,-0.8107 1.22295,-0.52789 2.68555,0.62891 1.67694,1.32643 2.6582,1.44113 2.6582,0.30859 0,-0.98815 -0.76535,-2.24847 -1.70312,-2.80078 -1.02274,-0.60238 -1.09517,-2.53623 -0.17969,-4.83203 1.60324,-4.01862 0.51762,-13.38717 -1.41992,-12.24609 -1.89283,1.11477 -0.94728,-8.03816 1.29492,-12.5293 0.76426,-1.53086 1.22553,-2.38024 1.4707,-2.64844 0.0688,-0.0113 0.13749,-0.0258 0.20703,-0.0391 1.78088,-0.46489 1.9225,-0.51337 2.67188,-0.7168 0.28824,-0.0431 0.60362,-0.0921 2.58008,-0.5332 33.31971,-8.67689 55.83211,-33.15059 55.8789,-60.74609 -1.9e-4,-35.39097 -36.49258,-64.0805 -81.50781,-64.08008 -22.32714,0.0302 -43.6619,7.25813 -59.02148,19.99805 -4.05366,-0.13531 -7.28798,0.74631 -9.9375,2.73242 -2.34259,1.75612 -5.189,2.64321 -6.32422,1.97461 -1.28485,-0.75674 -1.5843,-0.478 -0.79688,0.73633 0.79975,1.23307 -0.0791,1.95117 -2.38672,1.95117 -2.50333,0 -3.65039,-1.09292 -3.65039,-3.47852 0,-1.91323 -0.79001,-3.01495 -1.7539,-2.44726 -1.00264,0.5907 -1.30208,-0.082 -0.70117,-1.57422 0.65397,-1.62399 -0.18987,-3.0322 -2.23633,-3.73047 -14.00829,-4.89725 -4.34873,-3.85117 -9.57227,-12.09961 v -0.002 c -1.9e-4,-0.002 1.5e-4,-0.004 0,-0.008 -0.004,-0.11678 -0.018,-0.19533 -0.0293,-0.28906 h 0.0293 c -0.0189,-0.0692 -0.037,-0.13982 -0.0566,-0.20898 -0.003,-0.0151 -0.008,-0.025 -0.0117,-0.0371 -4.22695,-17.8193 -57.96526,-31.6627 -122.91406,-32.03321 z m -153.50391,93.08204 c 0.97501,0 1.67816,0.57262 1.5625,1.26953 -0.74335,4.48652 0.543,5.48743 5.97071,4.64062 4.0145,-0.62627 4.9804,-0.41206 3.18554,0.70899 -3.05419,1.90745 -14.66767,1.9913 -17.83007,0.1289 -1.58121,-0.93135 -1.13191,-1.63744 1.55859,-2.45117 2.07893,-0.6288 3.7793,-1.85406 3.7793,-2.7207 0,-0.86657 0.79832,-1.57617 1.77343,-1.57617 z m 14.82813,3.96289 c 0.16138,0.0227 0.35268,0.28573 0.56445,0.79101 0.51209,1.21962 0.45048,2.67691 -0.13867,3.23828 -0.58911,0.56145 -1.00837,-0.4378 -0.93164,-2.21875 0.0507,-1.23008 0.23744,-1.84932 0.50586,-1.81054 z m -22.36133,9.97461 c 1.69062,0.0113 3.72615,0.17947 6.15234,0.50585 5.14795,0.69185 8.36133,1.59029 7.14258,1.9961 -1.2189,0.40581 -2.21484,2.08126 -2.21484,3.72656 0,1.64531 -2.04324,5.09369 -4.54102,7.66211 -2.49777,2.56845 -4.14364,5.65585 -3.6582,6.86133 0.48544,1.20548 0.20423,4.34648 -0.625,6.98047 -1.17706,3.73973 -1.58621,4.05067 -1.86914,1.41211 -0.20107,-1.85847 -0.21645,-4.4094 -0.0312,-5.66602 0.27704,-1.92004 -0.0831,-1.92004 -2.26172,0 -1.42602,1.25662 -2.11608,3.03436 -1.5332,3.94727 1.99393,3.12325 1.56818,7.79445 -0.63672,6.98828 -2.39025,-0.87409 -1.47188,5.10233 1.30664,8.5039 0.99798,1.22181 0.73745,2.32408 -0.69922,2.95704 -1.80964,0.79729 -1.82599,1.21548 -0.0742,1.99414 2.51592,1.11889 3.05586,7.46289 0.63477,7.46289 -0.87077,0 -2.06149,-1.18992 -2.64649,-2.64258 -0.58461,-1.45266 -1.77941,-2.22038 -2.65429,-1.70508 -0.87496,0.51534 -2.87763,-1.64069 -4.44727,-4.79297 -3.23962,-6.50589 -3.69559,-10.13999 -1.08008,-8.59961 2.35363,1.38618 2.23597,0.39116 -0.56054,-4.74609 -1.70109,-3.12465 -3.01984,-3.86952 -4.87305,-2.75195 -1.39809,0.84306 -1.64866,1.54298 -0.55664,1.55859 1.09202,0.0189 2.36819,3.25784 2.83984,7.20703 0.7985,6.68568 10.20959,23.15748 10.26953,17.97461 0.0189,-1.9779 0.27607,-1.97297 1.60938,0.0391 0.87012,1.30957 1.16849,3.4103 0.66211,4.66797 -0.50642,1.25756 0.16407,3.54109 1.49218,5.07422 1.88633,2.17761 1.93006,2.94272 0.19922,3.49805 -2.46546,0.79079 -3.05344,3.80859 -0.74218,3.80859 0.81025,0 2.53797,-1.89905 3.84179,-4.2207 1.30386,-2.32162 2.75039,-3.86073 3.21289,-3.41992 0.46254,0.44088 0.0305,1.77117 -0.96484,2.95507 -1.03858,1.23757 -1.19892,3.58877 -0.37695,5.53125 0.7861,1.85844 1.48417,2.38238 1.55273,1.16602 0.0695,-1.24713 1.02754,-1.67721 2.19727,-0.98828 1.39453,0.82137 1.70459,0.29899 0.94336,-1.5918 -1.51246,-3.75617 2.0771,-3.54858 7.51171,0.43164 2.37752,1.74149 5.36941,2.78412 6.64844,2.31641 1.34517,-0.49198 2.32422,0.33444 2.32422,1.96289 0,1.54802 0.7984,2.34387 1.77344,1.76953 2.80172,-1.65003 1.95463,4.71264 -1.125,8.44727 -1.38577,1.68045 -2.07945,2.52221 -2.29492,2.51367 0.68326,1.17711 1.42002,2.223 2.14062,2.9707 4.9832,5.17115 2.94909,6.41946 -2.7832,1.70703 -2.99471,-2.46191 -5.0491,-6.30829 -5.8086,-10.86523 -0.75517,-4.53139 -1.94689,-6.7689 -3.33398,-6.26172 -3.15356,1.15328 -2.77689,10.78125 0.42188,10.78125 2.08444,0 2.15836,0.48394 0.38867,2.51562 -1.20503,1.38359 -3.01994,2.02558 -4.03516,1.42774 -1.0151,-0.59804 -1.37669,-0.36296 -0.80273,0.52148 l 0.002,-0.002 c 0.57381,0.88479 0.30989,2.71306 -0.58594,4.0625 -1.35095,2.03531 -1.63467,1.95257 -1.65625,-0.5 -0.0265,-2.93027 -6.04915,-4.27683 -7.5664,-1.69141 -0.40918,0.69691 -0.49512,0.30801 -0.19336,-0.86523 0.37493,-1.45557 -0.76906,-1.81915 -3.59766,-1.14258 -2.83536,0.67816 -4.48211,0.15159 -5.21484,-1.66797 -0.589,-1.46294 -0.29848,-2.66015 0.64648,-2.66015 0.94451,0 1.71484,-0.72661 1.71484,-1.61329 0,-0.88694 -2.96813,-1.24742 -6.59765,-0.80468 -4.95364,0.60427 -6.09312,0.32243 -4.57031,-1.12891 2.78793,-2.65674 0.876,-6.58984 -3.20313,-6.58984 -1.91388,0 -3.35742,-1.1771 -3.35742,-2.74024 0,-2.245 -0.48018,-2.36119 -2.6582,-0.63867 -2.19103,1.73291 -2.65821,1.58505 -2.65821,-0.84375 0,-2.42449 -0.47051,-2.57556 -2.65039,-0.85156 -2.13135,1.68563 -3.47449,1.58191 -6.85547,-0.5293 -5.18275,-3.23622 -7.08263,-9.09606 -3.55664,-10.97656 1.51627,-0.80848 2.10175,-2.53437 1.42578,-4.21289 -0.62914,-1.56261 -1.873,-2.4121 -2.76171,-1.88867 -0.88895,0.52354 -1.15697,1.65845 -0.59571,2.52343 0.56111,0.86502 -0.23147,1.57227 -1.75976,1.57227 -2.33522,0 -2.42542,-0.53747 -0.56446,-3.37695 1.21792,-1.85836 2.82198,-3.37891 3.5625,-3.37891 0.74049,0 1.34571,-1.09654 1.34571,-2.43555 0,-1.33897 0.7232,-2.86015 1.60742,-3.38086 0.88426,-0.52104 1.16359,0.76538 0.62305,2.85743 -0.5497,2.12734 -0.29949,3.20153 0.5664,2.4375 0.85111,-0.75134 2.50505,1.14831 3.67383,4.22265 l 2.12305,5.5918 0.13672,-6.33594 c 0.0741,-3.48453 -0.71159,-6.33594 -1.74414,-6.33594 -1.03246,0 -1.38397,-0.76221 -0.78126,-1.6914 0.60246,-0.9292 1.89403,-1.6875 2.86915,-1.6875 0.97496,0 1.31291,0.70732 0.75195,1.57226 -0.56107,0.86502 -0.20809,2.04918 0.7832,2.63282 1.08854,0.64108 1.80078,-1.26345 1.80078,-4.8125 0,-3.23116 0.48438,-7.07706 1.07618,-8.54688 0.59288,-1.47239 0.16876,-2.67187 -0.94336,-2.67187 -1.11001,0 -2.39083,1.13938 -2.84766,2.5332 -0.45676,1.39381 -1.22444,3.725 -1.70508,5.17773 -0.4803,1.45274 -1.61102,2.20624 -2.51172,1.67578 -0.94204,-0.55483 -0.44465,-3.85922 1.16992,-7.77734 -1.45681,-10.65808 5.07294,3.08203 5.92579,-10.05859 0.88384,0 1.60742,1.58561 1.60742,3.52148 0,3.86018 3.78951,3.668 4.90039,-0.24805 0.56496,-1.99211 0.3224,-1.97124 -1.35352,0.10743 -1.81583,2.25267 -1.96356,2.25267 -1.31836,0 0.39961,-1.39382 1.59214,-2.53516 2.64844,-2.53516 3.40944,0 4.55062,-2.38684 2.34961,-4.91406 -1.70173,-1.95406 -1.52893,-3.3567 0.83789,-6.79883 2.34728,-3.41405 2.46558,-4.35055 0.56055,-4.39844 -1.33096,-0.034 -0.0734,-1.88875 2.79492,-4.12304 5.81427,-4.52894 8.02202,-4.17109 8.20703,1.32812 0.11943,3.55359 0.18097,3.56586 1.55078,0.32227 0.78456,-1.85847 1.13619,-3.86347 0.78125,-4.45508 -0.3549,-0.59165 0.52022,-1.99758 1.94336,-3.12305 1.11768,-0.88411 2.97736,-1.30956 5.79492,-1.29297 z m 2.06445,2.11328 c -0.42107,-0.0435 -1.68579,1.61937 -3.16797,4.25 -1.82417,3.23777 -2.93469,6.83656 -2.46874,7.99804 0.46558,1.16153 1.22701,2.11329 1.6914,2.11329 0.46439,0 0.48615,-0.95176 0.0508,-2.11329 -0.43714,-1.16148 -0.0186,-3.54521 0.92969,-5.29687 1.41721,-2.61842 2.03612,-2.76768 3.47461,-0.84375 1.33844,1.79025 1.50141,1.61179 0.69531,-0.75586 -0.57955,-1.70211 -1.05469,-3.97001 -1.05469,-5.04102 0,-0.20069 -0.0494,-0.30034 -0.14843,-0.31054 z m 1.81836,9.29101 c -1.03253,0 -1.38389,0.76221 -0.78125,1.69141 0.60246,0.9292 1.44504,1.68945 1.875,1.68945 0.43023,0 0.78321,-0.76025 0.78321,-1.68945 0,-0.9292 -0.84439,-1.69141 -1.87696,-1.69141 z m -22.125,4.1836 c -0.52165,0.0113 -1.09706,0.65458 -2.00195,1.83398 -1.23643,1.61129 -1.82839,3.57688 -1.31445,4.36914 0.51397,0.79238 2.46627,1.44141 4.33789,1.44141 3.01701,0 3.16691,-0.49678 1.31445,-4.3711 -1.0814,-2.26197 -1.665,-3.2884 -2.33594,-3.27343 z m -8.54297,1.39257 c 0.46126,0.0442 0.0651,0.64563 -1.10546,1.99024 -2.55308,2.93163 -3.58008,3.23512 -3.58008,1.0625 0,-0.8298 1.30956,-1.98701 2.91015,-2.57227 0.91246,-0.33373 1.49851,-0.50711 1.77539,-0.48047 z m 27.45118,18.93555 h 0.002 c 1.06258,-0.014 1.54492,0.77779 1.54492,2.4375 0,4.73269 1.926,8.64203 3.73242,7.57813 0.87289,-0.5141 1.58789,-0.13045 1.58789,0.85351 0,0.98408 -1.19751,1.78906 -2.66015,1.78906 -2.93076,0 -3.59056,2.63097 -1.03711,4.13477 0.89174,0.52543 2.0257,-6.2e-4 2.51953,-1.16797 0.54134,-1.28039 0.95256,-0.94773 1.03711,0.83594 0.0869,1.83734 -1.15223,2.95703 -3.27149,2.95703 -2.90929,0 -3.36416,-1.12792 -3.10156,-7.66602 0.19503,-4.83957 -0.56139,-8.17706 -2.05469,-9.05664 -1.89996,-1.11915 -1.81508,-1.59492 0.44141,-2.41992 0.48722,-0.17813 0.90543,-0.27097 1.25977,-0.27539 z m -25.81055,0.24024 c -2.50518,0.21052 -4.55078,2.89579 -4.55078,6.71289 0,2.20932 0.7964,4.01562 1.77148,4.01562 0.97512,0 1.77149,-1.9016 1.77149,-4.22461 0,-2.88642 0.98132,-4.22855 3.10156,-4.24804 2.59529,-0.0227 2.67857,-0.2826 0.50391,-1.59376 -0.87829,-0.52935 -1.76254,-0.73233 -2.59766,-0.6621 z m 15.73242,7.91796 c -0.47202,0.0442 -0.78516,0.40626 -0.78515,1.02149 0,0.98411 0.80027,1.78906 1.77539,1.78906 0.97508,0 1.77148,-0.33685 1.77148,-0.74609 0,-0.40985 -0.7964,-1.21277 -1.77148,-1.78711 -0.36586,-0.21543 -0.70715,-0.3038 -0.99024,-0.27735 z m 16.92578,14.60743 c 0.34129,-0.0189 0.66355,0.0792 0.92774,0.33203 0.37001,0.35263 0.018,1.64895 -0.78321,2.88281 -0.94201,1.45247 -1.85569,1.62733 -2.59179,0.49219 -0.87946,-1.35602 0.96799,-3.62303 2.44726,-3.70508 z m -37.20898,0.0273 c -0.97497,0 -1.77539,0.76029 -1.77539,1.68945 0,0.92924 0.80042,1.68946 1.77539,1.68946 0.97508,0 1.77148,-0.76022 1.77148,-1.68946 0,-0.92916 -0.7964,-1.68945 -1.77148,-1.68945 z m -20.32813,4.24023 c 0.1697,0.0442 0.32472,0.24193 0.44922,0.59766 0.42607,1.21886 -0.0692,3.02018 -1.09961,4.00195 -1.31554,1.25375 -1.54465,0.5934 -0.77343,-2.21679 0.3917,-1.42787 0.85141,-2.26273 1.25,-2.37891 0.0571,-0.0189 0.11751,-0.019 0.17382,-0.004 z m 443.6836,2.84766 c 0.23811,-0.0302 0.50571,-0.002 0.80078,0.0918 1.21886,0.38736 2.25355,2.73289 2.29883,5.21094 0.0911,4.98802 -1.76977,5.97851 -3.43946,1.83203 -1.55017,-3.84968 -1.32356,-6.92773 0.33985,-7.13477 z m -383.38282,0.48438 c 1.24381,-0.004 2.57422,0.70772 2.57422,1.82226 0,0.40982 -1.24358,0.74219 -2.76367,0.74219 -1.52012,0 -2.2629,-0.77049 -1.65039,-1.71485 0.37992,-0.58536 1.09361,-0.84681 1.83984,-0.8496 z m 5.91016,2.56445 c 0.97516,0 2.26657,0.76022 2.86914,1.68945 0.60246,0.92916 0.29727,1.68945 -0.67773,1.68946 -0.97512,0 -2.26454,-0.7603 -2.86719,-1.68946 -0.60246,-0.92923 -0.29922,-1.68945 0.67578,-1.68945 z m -32.25,10.16211 c -1.26879,0.0151 -1.04916,0.67999 0.54883,1.66406 3.40588,2.09753 4.01857,2.09753 2.6582,0 -0.60238,-0.92923 -2.04573,-1.67963 -3.20703,-1.66406 z m 46.58984,0.3457 c 0.15648,0.003 0.32129,0.0386 0.4961,0.0937 1.21882,0.40985 2.10634,1.98388 1.97265,3.5 -0.13341,1.51616 0.4651,2.3414 1.33008,1.83203 0.86499,-0.50967 1.63239,-0.31049 1.70703,0.44141 0.0741,0.75175 0.44861,2.88571 0.83008,4.74414 1.02588,5.00215 -0.80815,9.24477 -3.56054,8.23828 -1.37001,-0.50079 -2.77372,0.44844 -3.24805,2.19727 -0.64131,2.36356 -0.94575,2.09791 -1.31055,-1.14258 -0.26154,-2.32309 -0.57628,-4.98487 -0.69726,-5.91406 -0.12095,-0.9292 -0.84438,-2.64121 -1.60743,-3.80274 -0.78338,-1.19229 -0.57022,-2.10937 0.49024,-2.10937 1.03257,0 1.8789,-1.96482 1.8789,-4.36524 0,-2.41735 0.62311,-3.73681 1.71875,-3.71289 z m -11.84765,0.0625 c -0.36888,0.0907 -0.12946,1.50875 0.48437,4.63672 0.40188,2.04767 1.41163,4.53631 2.60547,6.62109 -0.0265,-0.27893 0.22482,-1.09878 0.65625,-2.48632 0.62408,-2.00788 -0.0762,-4.85252 -1.66992,-6.75782 -1.13189,-1.35363 -1.789,-2.08469 -2.07617,-2.01367 z m -24.75781,4.98242 c -0.36511,-0.0442 -0.57227,0.19315 -0.57227,0.72266 0,0.96023 0.5316,2.25553 1.18164,2.875 0.65004,0.61939 1.59584,0.7321 2.09961,0.25195 0.50385,-0.48 -0.0303,-1.77343 -1.18359,-2.87304 -0.63617,-0.60617 -1.15991,-0.93242 -1.52539,-0.97657 z m 39.26171,6.41211 c -1.43206,0 -2.60351,1.14131 -2.60351,2.53516 0,1.39378 0.71134,2.5332 1.58203,2.5332 0.87088,0 2.04417,-1.13942 2.60547,-2.5332 0.62147,-1.54373 0.002,-2.53516 -1.58399,-2.53516 z m -19.91406,3.71094 c 0.79472,-0.004 1.35352,0.43095 1.35352,1.16406 0,0.97743 1.19751,1.33953 2.66015,0.80469 1.86135,-0.68073 2.66016,0.1292 2.66016,2.70117 0,2.90472 0.74131,3.4495 3.54492,2.60156 2.11332,-0.63923 3.54492,-0.30446 3.54492,0.83008 0,1.04674 -0.79651,1.43379 -1.77148,0.85938 -0.97512,-0.57396 -1.77344,-0.40254 -1.77344,0.38281 0,0.78486 -1.51716,1.42773 -3.37109,1.42773 -2.15214,0 -3.16919,-0.98793 -2.81641,-2.73437 0.30425,-1.50448 -0.58518,-2.73633 -1.97461,-2.73633 -1.70721,0 -2.19287,1.14108 -1.49804,3.51953 0.80023,2.7394 0.63195,2.96952 -0.76368,1.03516 -0.986,-1.36679 -2.34774,-1.95798 -3.02734,-1.31055 -0.67941,0.64759 -0.2277,2.3396 1.00586,3.75586 1.27676,1.46612 1.46833,2.57227 0.44336,2.57227 -2.76922,0 -4.24181,-5.23516 -2.14844,-7.63868 1.02592,-1.17833 1.6371,-3.07567 1.35938,-4.21874 -0.27818,-1.14324 0.4923,-2.42761 1.71093,-2.85352 0.30463,-0.10658 0.59642,-0.15984 0.86133,-0.16211 z m 119.92774,2.91016 c 0.0775,-0.004 0.15784,-0.004 0.24023,0.004 0.30614,0.0397 0.64854,0.21829 1.01172,0.56446 0.57377,0.54686 0.69565,2.3832 0.27344,4.08203 -0.73463,2.95132 -0.82999,2.95452 -2.14844,0.0625 -1.05906,-2.32536 -0.5398,-4.58297 0.62305,-4.71094 z m -131.97266,0.70507 c 0.28346,-0.0265 0.6228,0.0618 0.98828,0.2754 0.97516,0.57391 1.77539,1.38131 1.77539,1.79101 0,0.40985 -0.80023,0.74609 -1.77539,0.74609 -0.97512,0 -1.77148,-0.80701 -1.77148,-1.79101 0,-0.61501 0.31155,-0.97689 0.7832,-1.02149 z m 393.78516,1.1211 c 0.43003,0 0.77929,0.76037 0.77929,1.68945 0,0.92935 -0.84431,1.69141 -1.87695,1.69141 -1.03279,0 -1.3839,-0.76206 -0.78125,-1.69141 0.60242,-0.92908 1.44887,-1.68945 1.87891,-1.68945 z m -215.95508,0.67187 c 0.10809,0.004 0.21984,0.0386 0.33398,0.10547 2.03842,1.20057 1.71359,7.66992 -0.38476,7.66992 -0.83346,0 -1.00971,1.5204 -0.39063,3.37891 0.61898,1.85836 0.36792,3.38086 -0.55859,3.38086 -0.92704,0 -2.10331,-1.52247 -2.61328,-3.38086 -0.5102,-1.85854 -0.20262,-3.37891 0.68164,-3.37891 0.88384,0 1.60547,-1.94441 1.60547,-4.32226 0,-2.08059 0.57132,-3.49274 1.32617,-3.45313 z m -19.54883,3.50782 c 0.24491,-0.0189 0.4869,0.0388 0.70898,0.16992 0.88884,0.52354 1.15498,1.66048 0.59375,2.52539 -1.66722,2.57064 -4.32871,1.78596 -3.22656,-0.95117 0.41923,-1.04134 1.18943,-1.70083 1.92383,-1.74414 z m 10.42578,3.00585 c 0.40509,-0.0189 0.62491,0.23579 0.53711,0.71485 -0.59671,3.27379 0.28328,5.74572 1.73828,4.88867 0.86419,-0.50906 1.97183,0.53394 2.46094,2.31641 0.65767,2.39644 0.0183,3.17974 -2.45899,3.00195 -1.84077,-0.13153 -3.39952,-0.26916 -3.46679,-0.30469 -1.18058,-0.60741 -0.92919,-9.58166 0.28906,-10.29883 0.34923,-0.2056 0.65763,-0.30846 0.90039,-0.3164 z m -169.69726,2.95118 c 0.86127,0 1.98416,1.52242 2.49414,3.38086 0.50955,1.85843 0.80116,3.31746 0.64843,3.24414 -0.15193,-0.0729 -1.27332,-0.51557 -2.49218,-0.98438 -2.51048,-0.96537 -3.04964,-5.64062 -0.65039,-5.64062 z m 6.19531,0.6582 c 0.64615,0.0189 1.10351,0.69088 1.10351,1.77734 0,2.96769 -1.06423,3.40397 -2.58398,1.06055 -0.56111,-0.86498 -0.20963,-2.04925 0.78125,-2.63281 0.24794,-0.14589 0.48413,-0.21151 0.69922,-0.20508 z m 9.96875,1.03125 c 0.97504,0 1.77148,0.76221 1.77148,1.69141 0,0.92927 -0.79644,1.68945 -1.77148,1.68945 -0.97512,0 -1.77539,-0.76018 -1.77539,-1.68945 0,-0.9292 0.80027,-1.69141 1.77539,-1.69141 z m 377.51367,3.38086 c 1.03264,0 1.87695,0.76026 1.87695,1.68945 0,0.92912 -0.3499,1.6875 -0.77929,1.6875 -0.43004,0 -1.27626,-0.75838 -1.87891,-1.6875 -0.60246,-0.92919 -0.25124,-1.68945 0.78125,-1.68945 z m -300.8125,2.01758 h 0.002 c 0.2443,0.0729 0.67117,1.01283 1.45118,2.87109 1.73615,4.13473 1.37529,6.1389 -0.74219,4.1211 -0.64997,-0.61936 -1.12851,-2.71073 -1.06641,-4.64649 0.0505,-1.61482 0.11222,-2.41297 0.35547,-2.3457 z m 29.56445,3.04883 c 1.03265,0 1.87891,0.76025 1.87891,1.68945 0,0.92927 -0.35309,1.68945 -0.7832,1.68945 -0.43023,0 -1.27416,-0.76018 -1.87696,-1.68945 -0.60238,-0.9292 -0.25177,-1.68945 0.78125,-1.68945 z m 45.31446,0 c 1.57791,0 2.37413,0.76025 1.77148,1.68945 -0.60238,0.92927 -1.39924,1.68945 -1.77148,1.68945 -0.37191,0 -1.17275,-0.76018 -1.77539,-1.68945 -0.60246,-0.9292 0.19668,-1.68945 1.77539,-1.68945 z m -159.60938,0.12695 h 0.002 c 0.26906,-0.0105 0.62953,0.0569 1.08789,0.20312 1.37016,0.43537 2.49593,2.2509 2.5,4.03321 0.004,1.78235 1.00189,3.05061 2.22071,2.81836 1.21886,-0.23207 2.21875,-0.0683 2.21875,0.36328 0,0.43192 -1.54781,1.57348 -3.4375,2.53711 -2.80082,1.42854 -3.41403,1.20593 -3.31055,-1.20703 0.0695,-1.62807 -0.50214,-4.3955 -1.27539,-6.14844 -0.77891,-1.76595 -0.81689,-2.55904 -0.006,-2.59961 z m 95.3418,0.004 h 0.002 c 1.70548,-0.0724 3.10156,0.51175 3.10156,1.29882 0,0.78724 1.79239,2.25733 3.98633,3.26563 2.19379,1.00838 3.07252,1.88452 1.95117,1.94726 -1.12138,0.0631 0.67503,2.7 3.99024,5.85938 3.31525,3.15934 6.00326,7.15013 5.96875,8.86914 -0.0507,2.80018 -0.40894,2.72542 -3.41797,-0.71289 -1.84717,-2.11068 -3.84046,-3.09407 -4.42969,-2.18555 -0.58911,0.9086 -2.37984,1.17342 -3.98047,0.58789 -2.18846,-0.80027 -2.62961,-0.3646 -1.77343,1.76172 0.62664,1.55516 0.96508,2.77567 0.75195,2.71289 -3.15439,-0.93059 -9.55605,-4.418 -10.55664,-5.75195 -1.95897,-2.61128 -1.61535,-7.64844 0.52148,-7.64844 1.03265,0 1.30868,0.87835 0.61328,1.95117 -0.74381,1.14705 -0.49042,1.49301 0.61524,0.8418 1.03419,-0.60934 1.4304,-2.74516 0.88086,-4.74805 -0.68463,-2.49475 -0.35344,-3.26165 1.05273,-2.43359 1.20012,0.70681 2.05274,0.17437 2.05274,-1.2832 0,-1.37122 -0.99606,-2.87705 -2.21485,-3.34571 -1.32335,-0.5088 -0.96652,-0.90612 0.88477,-0.98632 z m 60.14258,3.97265 c 0.53945,-0.0302 0.61103,1.17119 0.12695,2.93555 -0.77409,2.82043 -0.37367,3.43389 1.73633,2.66211 2.09586,-0.76649 2.52875,-0.13285 1.83203,2.67383 -0.50196,2.02129 -1.87671,4.43404 -3.05664,5.36328 -1.17993,0.92923 -2.6786,2.8288 -3.33008,4.22265 -0.65155,1.39378 -0.74903,0.37967 -0.2168,-2.2539 0.62347,-3.08285 0.31077,-4.39855 -0.87695,-3.69922 -1.0142,0.59735 -1.8418,0.27877 -1.8418,-0.70508 0,-0.98404 1.19564,-1.78906 2.65821,-1.78906 1.46264,0 2.6582,-0.80307 2.6582,-1.78711 0,-0.984 -0.72132,-1.3663 -1.60547,-0.8457 -0.88418,0.52103 -1.18815,-0.58468 -0.67383,-2.45899 0.51406,-1.87415 1.56363,-3.7771 2.33008,-4.22851 0.0964,-0.0567 0.18266,-0.0849 0.25977,-0.0899 z m -64.6543,2.0293 c 1.23073,0.0397 1.13498,0.90969 -1.30274,2.3789 -1.43447,0.86438 -3.80294,1.55857 -5.26562,1.53907 -1.54171,-0.0189 -0.79847,-1.01674 1.76953,-2.3711 2.0826,-1.0984 3.84159,-1.57552 4.79883,-1.54687 z m 23.56641,0.74414 c 0.57441,0.0567 1.31562,0.45507 2.16015,1.25976 1.48653,1.41672 1.5474,2.52503 0.20703,3.80274 -1.34078,1.27771 -2.23014,0.95989 -3.05468,-1.08789 -1.03061,-2.55912 -0.5763,-4.09816 0.6875,-3.97461 z m -101.54297,0.32422 c 0.065,-0.0113 0.12551,-0.0115 0.17578,0.002 0.1319,0.0397 0.20312,0.16473 0.20312,0.39648 0,0.92928 -1.1719,3.16505 -2.60351,4.96876 -1.43161,1.80365 -2.59961,2.52099 -2.59961,1.59179 0,-0.92923 1.168,-3.16493 2.59961,-4.96875 0.93955,-1.18356 1.76664,-1.90096 2.22461,-1.99023 z m -18.41211,1.88672 v 0.002 c 0.47901,0.0113 0.53437,0.67312 0.0801,1.80078 -1.17857,2.9269 -2.44922,3.46355 -2.44922,1.0332 0,-0.87424 0.78802,-2.05344 1.75195,-2.62109 0.25172,-0.14816 0.45739,-0.21862 0.61719,-0.21484 z m 179.50781,3.42187 v 0.002 c 1.31599,0.0881 2.5,1.32477 2.5,2.97461 0,0.77443 -0.74854,1.40625 -1.66602,1.40625 -2.40608,0 -3.98774,-2.98261 -2.15429,-4.0625 0.42886,-0.25171 0.88162,-0.34979 1.32031,-0.32031 z m -89.79297,1.00391 c 0.91763,0 2.16091,0.76025 2.76367,1.68945 0.60238,0.92924 -0.1478,1.68945 -1.66797,1.68945 -1.5202,0 -2.76367,-0.76021 -2.76367,-1.68945 0,-0.9292 0.75057,-1.68945 1.66797,-1.68945 z m -80.6543,0.18359 c 0.58587,0.0998 1.55313,0.99697 2.98047,2.67383 2.01381,2.36738 2.01909,2.62194 0.0254,1.47851 -1.8175,-1.04295 -2.1303,-0.55158 -1.27734,2.00977 h 0.004 c 0.75337,2.26171 0.19256,3.73391 -1.67774,4.41797 -1.93069,0.70594 -2.3786,0.37255 -1.4375,-1.06836 0.75198,-1.15079 1.13492,-3.80381 0.85156,-5.89453 -0.34582,-2.55579 -0.22265,-3.74603 0.53125,-3.61719 z m -19.4082,0.38086 c 1.4626,0 2.66016,0.6319 2.66016,1.40625 0,0.77443 -1.19756,1.4082 -2.66016,1.4082 -1.46264,0 -2.66016,-0.63377 -2.66015,-1.4082 0,-0.77435 1.19751,-1.40625 2.66015,-1.40625 z m 6.20508,6.19336 c 0.97504,0 1.77344,1.09462 1.77344,2.43359 0,1.33901 -0.7984,2.90433 -1.77344,3.47852 -0.97516,0.57464 -1.77149,-0.52044 -1.77149,-2.43359 0,-1.91331 0.79633,-3.47852 1.77149,-3.47852 z m 398.34961,0.62891 c 0.0998,-0.0113 0.20119,0.0111 0.30664,0.0742 0.84412,0.49698 1.15005,2.82278 0.67969,5.16797 -1.16304,5.79738 -2.21485,5.36982 -2.21485,-0.90234 0,-2.48716 0.5304,-4.26679 1.22852,-4.33984 z M 266.875,427.68945 c 0.23017,0.004 0.4205,0.0708 0.55664,0.20117 0.54584,0.52037 -0.43668,1.46522 -2.18555,2.09961 -2.52672,0.9168 -2.73005,0.72332 -0.99218,-0.94531 0.90206,-0.866 1.93212,-1.37474 2.62109,-1.35547 z m 150.25586,0.21875 c 0.71614,-0.0265 1.47322,0.3602 2.47461,1.15235 1.81115,1.43236 2.75269,1.47915 3.21289,0.16406 0.44761,-1.28032 2.17132,-1.11025 5.51953,0.54492 4.06307,2.00878 4.45259,2.73625 2.35352,4.39649 -1.94506,1.53845 -2.72481,1.49427 -3.43555,-0.19336 -0.62083,-1.47413 -0.96426,-1.29074 -1.05859,0.5664 -0.0767,1.51242 1.05693,3.69668 2.51953,4.85352 1.46264,1.15668 2.60176,3.72034 2.5332,5.69726 -0.1217,3.50589 -0.16041,3.51221 -1.64648,0.2168 -1.02637,-2.2763 -1.57359,-2.55096 -1.67579,-0.84375 -0.13303,2.21877 -0.35704,2.22312 -1.80078,0.0488 -0.90712,-1.36728 -2.19056,-1.96978 -2.85156,-1.33984 -1.8051,1.72005 0.70804,6.73643 2.76758,5.52343 0.982,-0.57845 1.78906,-0.20328 1.78906,0.83594 0,1.03884 0.79644,1.42004 1.77149,0.8457 0.97508,-0.57396 1.77148,-0.23802 1.77148,0.7461 0,1.64043 -2.45221,2.48434 -5.76172,1.98633 -0.73122,-0.10923 -1.32812,1.32324 -1.32812,3.18164 0,1.85839 -0.68828,3.37695 -1.5293,3.37695 -0.84072,0 -1.29692,2.02303 -1.01172,4.49609 0.56806,4.93297 -6.15004,11.38949 -12.23047,11.75391 -1.84085,0.11036 -3.95708,1.14259 -4.70312,2.29297 -1.0269,1.58358 -1.66995,1.60862 -2.64453,0.10547 -0.7081,-1.09353 -2.39356,-1.57858 -3.7461,-1.08399 -2.066,0.75549 -2.09966,0.0563 -0.20117,-4.3789 2.11945,-4.94971 8.33594,-8.21866 8.33594,-4.38282 0,1.04463 1.07014,0.90348 2.66015,-0.35351 3.64067,-2.87944 3.35488,-5.67835 -0.44336,-4.33594 -1.70645,0.60302 0.41448,-2.08752 4.7129,-5.98047 6.96626,-6.30879 7.49775,-7.30072 4.87695,-9.12695 -3.13334,-2.18343 -4.15387,-5.1258 -1.16797,-3.36719 2.67462,1.57531 2.12539,-1.95616 -0.72656,-4.67383 -1.62108,-1.54488 -1.94232,-3.21745 -0.91407,-4.76562 2.35412,-3.54376 1.99962,-7.00303 -0.57617,-5.61719 -1.73775,0.93506 -1.7535,0.71823 -0.0742,-1.00977 0.83694,-0.86135 1.5123,-1.30309 2.22852,-1.33007 z m -188.86133,0.80469 c 0.56428,-0.0265 1.48662,1.0615 2.35742,2.88281 1.32473,2.771 1.44604,4.41602 0.32227,4.41602 -2.15686,0 -4.05146,-4.19914 -3.10938,-6.89258 0.093,-0.26646 0.2417,-0.39869 0.42969,-0.40625 z m 8.14649,0.54102 c 0.94439,0 1.71875,1.13946 1.71875,2.5332 0,1.39385 -0.31406,2.53516 -0.69727,2.53516 -0.38351,0 -1.15557,-1.14131 -1.7168,-2.53516 -0.56107,-1.39374 -0.24983,-2.5332 0.69532,-2.5332 z m 12.88671,0.27539 c 0.0835,-0.0189 0.16748,-0.0189 0.2461,0.002 0.0903,0.0265 0.17693,0.0729 0.25781,0.15039 0.64683,0.61621 0.55267,2.48415 -0.20898,4.15039 -0.76173,1.66624 -1.25685,3.85277 -1.09766,4.85938 0.15912,1.00671 -0.91082,1.82812 -2.37891,1.82812 -1.46804,0 -2.66797,-1.01099 -2.66797,-2.25 0,-1.23897 0.70506,-2.2539 1.56641,-2.25391 0.86136,0 2.02535,-1.67639 2.58789,-3.72656 0.43072,-1.56964 1.10964,-2.62756 1.69531,-2.75976 z m 152.92383,0.27539 c 0.47203,0.0265 0.78516,0.35842 0.78516,0.93945 0,0.92916 -0.80027,2.15812 -1.77539,2.73242 -0.97504,0.574 -1.77149,0.28493 -1.77149,-0.64453 0,-0.92912 0.79645,-2.1582 1.77149,-2.73242 0.36548,-0.21543 0.70722,-0.3108 0.99023,-0.29492 z m -144.38867,4.91211 c 1.05377,-0.0265 1.57031,0.68457 1.57031,2.14453 0,1.82199 -0.94384,2.55044 -2.54492,1.96484 -1.39967,-0.51148 -2.93267,-0.0261 -3.40625,1.08594 -0.47391,1.10933 -0.92275,0.6847 -1,-0.94141 -0.0767,-1.62618 0.1936,-2.95507 0.60156,-2.95508 0.40781,0 2.00449,-0.46129 3.54688,-1.02539 0.47138,-0.17234 0.88115,-0.26474 1.23242,-0.27343 z m 145.17383,1.29882 c 0.97512,0 1.77148,0.76026 1.77148,1.68946 0,0.92919 -0.79636,1.68945 -1.77148,1.68945 -0.97512,0 -1.77539,-0.76026 -1.77539,-1.68945 0,-0.9292 0.80027,-1.68945 1.77539,-1.68946 z m -17.75195,1.26954 c 0.77618,0.10727 1.18869,2.72383 0.52148,6.03515 -0.60503,3.00148 -2.56044,5.35064 -5.26953,6.33203 -2.36878,0.85841 -3.83529,2.28942 -3.25781,3.17969 1.33315,2.0558 6.46865,0.39908 9.35742,-3.01758 2.97449,-3.51802 2.73934,-0.23772 -0.25195,3.51758 -1.29536,1.62622 -3.99725,2.95508 -6.00391,2.95508 -4.81361,0 -9.25586,1.68832 -9.25586,3.51758 0,0.8067 1.93272,0.76681 4.29492,-0.0879 3.25947,-1.18103 4.86231,-0.8907 6.64844,1.20312 2.03282,2.38315 1.93167,2.60744 -0.74805,1.65039 -1.70649,-0.60933 -3.10351,-0.37248 -3.10351,0.52735 0,2.14953 -3.68938,1.92209 -7.35352,-0.45508 -2.67583,-1.73571 -2.61748,-2.28245 0.68945,-6.54492 3.34318,-4.30919 3.39633,-4.85536 0.70508,-7.41993 -1.5976,-1.52258 -2.90625,-3.22026 -2.90625,-3.77343 0,-0.55257 0.46405,-0.5633 1.03321,-0.0195 0.56873,0.5419 2.62417,-0.53013 4.56835,-2.38282 1.94431,-1.85291 4.62112,-2.97059 5.94532,-2.48633 1.32415,0.48446 2.74695,-0.0272 3.16406,-1.13867 0.43752,-1.16462 0.86919,-1.63832 1.22266,-1.59179 z m 51.44726,0.41992 c 1.30598,0 4.16411,5.28356 3.13086,5.78711 -0.26646,0.13001 -1.7394,1.14353 -3.27344,2.25195 -2.41421,1.74425 -2.68585,1.33973 -2.01562,-3.01172 0.42565,-2.76518 1.3981,-5.02734 2.1582,-5.02734 z m -13.69531,0.92187 c -1.7743,0.085 -4.04688,0.83005 -4.04688,1.68555 0,0.30992 1.54121,0.45014 3.42383,0.31445 1.88258,-0.13493 3.05472,-0.81594 2.60352,-1.51172 -0.18709,-0.28913 -0.6579,-0.43895 -1.25781,-0.48242 -0.22526,-0.0189 -0.46932,-0.019 -0.72266,-0.004 z m -182.85156,0.76563 c 0.8352,0 1.51953,1.85679 1.51953,4.125 0,5.92331 -2.62221,6.63897 -2.84766,0.77734 -0.10394,-2.69628 0.49281,-4.90234 1.32813,-4.90234 z m 399.94726,8.9082 c 0.46632,0.004 0.74224,2.15144 1.33789,7.56641 0.2298,2.09076 -0.17786,3.80078 -0.90625,3.80078 -2.1191,0 -3.08473,-5.66804 -1.58789,-9.32031 0.52864,-1.28916 0.87649,-2.05145 1.15625,-2.04688 z m -247.73437,1.23047 c 0.97504,0 1.77148,0.76029 1.77148,1.68945 0,0.92928 -0.79644,1.68946 -1.77148,1.68946 -0.9752,0 -1.77149,-0.76018 -1.77149,-1.68946 0,-0.92916 0.79629,-1.68945 1.77149,-1.68945 z m 45.3125,1.68945 c 0.43022,0 0.78125,0.76026 0.78125,1.68946 0,0.92919 -0.84439,1.68945 -1.87696,1.68945 -1.03283,0 -1.38389,-0.76026 -0.78125,-1.68945 0.60238,-0.9292 1.44696,-1.68946 1.87696,-1.68946 z m -190.04102,0.58399 c 0.16139,0.0265 0.35269,0.2834 0.56445,0.78906 0.51213,1.21954 0.44899,2.67687 -0.14062,3.23828 -0.58908,0.56137 -1.0069,-0.43562 -0.92969,-2.2168 0.0507,-1.23012 0.23744,-1.84932 0.50586,-1.81054 z m 401.77539,3.7207 h 0.002 c 0.62715,-0.0477 1.18647,1.0021 1.31054,2.57031 0.30652,3.88003 -0.52875,4.22269 -1.91406,0.78321 -0.54898,-1.36411 -0.40039,-2.8336 0.33008,-3.26368 0.0909,-0.0563 0.18247,-0.0817 0.27148,-0.0898 z m -388.78711,0.79102 c 1.16134,-0.0189 2.60431,0.73482 3.20703,1.66406 1.36018,2.09752 0.74577,2.09752 -2.66015,0 -1.59784,-0.98411 -1.81551,-1.64849 -0.54688,-1.66406 z m 168.29492,0.29297 c 0.39575,0.0837 0.67579,0.89504 0.67579,2.14062 0,2.51546 0.45229,2.66182 2.69921,0.88477 2.25748,-1.78534 2.5178,-1.68015 1.58399,0.63867 -0.61448,1.52519 -1.85452,2.77343 -2.75586,2.77344 -2.06925,0 -4.11046,-4.85926 -2.63281,-6.26758 0.15193,-0.14514 0.29804,-0.19789 0.42968,-0.16992 z m -11.6289,1.37109 c -2.68687,0 -3.35878,2.13113 -1.33008,4.22461 1.1602,1.19739 2.67255,1.85388 3.36133,1.45703 1.51034,-0.87024 -0.20982,-5.68164 -2.03125,-5.68164 z m -177.03321,4.41211 c 0.54263,0.0627 1.18449,1.37211 1.85547,3.83984 0.84235,3.09801 1.10613,6.04134 0.58399,6.53906 -1.51593,1.4445 -4.20906,-6.93367 -3.11133,-9.67968 0.19843,-0.4958 0.42527,-0.72738 0.67187,-0.69922 z m 192.375,2.5957 c 0.32051,-0.0639 0.46405,0.12692 0.35157,0.5918 -0.22488,0.92923 0.22808,3.07909 1.0039,4.77734 0.9687,2.12081 0.3952,3.9732 -1.83593,5.91406 -3.05175,2.6552 -3.1091,2.648 -0.91407,-0.13086 1.90111,-2.40592 1.91305,-3.44398 0.0664,-5.56445 -1.7946,-2.06052 -1.81282,-3.02932 -0.0898,-4.64258 0.59924,-0.56076 1.09706,-0.88177 1.41796,-0.94531 z m -261.05078,2.21875 h 0.002 c 0.10658,0.0397 0.22444,0.19599 0.34765,0.48633 0.49172,1.16152 0.49172,3.06305 0,4.22461 -0.49179,1.16152 -0.89453,0.21187 -0.89453,-2.11133 0,-1.74225 0.22476,-2.71349 0.54492,-2.59961 z m 243.24219,1.28516 c -0.20825,-0.002 -0.46624,0.20736 -0.76758,0.63672 -0.71633,1.02221 -2.50032,2.29365 -3.96289,2.82421 -1.77702,0.64457 -1.33536,1.00843 1.33008,1.09766 2.67987,0.0896 3.97821,-0.83789 3.96094,-2.82422 -0.004,-1.13983 -0.21313,-1.73071 -0.56055,-1.73437 z m -233.96289,2.82617 c 1.58253,-0.1285 4.12636,1.30953 4.20313,3.13281 0.10885,2.57806 0.29582,2.5382 1.46679,-0.31055 0.9371,-2.2801 1.73855,-2.65329 2.65625,-1.23828 0.72306,1.11496 2.05712,1.58938 2.96485,1.05469 0.90776,-0.53484 1.65234,-0.21263 1.65234,0.7168 0,0.92919 -0.7964,2.15816 -1.77148,2.73242 -0.97505,0.5746 -1.77539,0.14843 -1.7754,-0.94922 0,-1.40753 -0.65237,-1.47878 -2.21874,-0.24023 -2.16171,1.70967 -8.41602,-0.99767 -8.41602,-3.64258 0,-0.81668 0.51885,-1.19743 1.23828,-1.25586 z m 26.4043,2.35547 c 1.36898,10e-4 2.147,2.40179 3.33203,9.22656 0.68572,3.94904 0.77629,7.17969 0.20312,7.17969 -0.57324,0 -1.04643,-1.33093 -1.05078,-2.95703 -0.004,-1.62614 -1.14876,-5.03476 -2.53906,-7.57422 -1.39007,-2.53962 -1.83941,-5.02407 -0.99805,-5.51953 0.3913,-0.23018 0.73677,-0.35547 1.05274,-0.35547 z m 215.58789,3.44726 c 2.06048,0.11944 3.80401,2.20502 2.40429,4.36329 -0.65513,1.01014 -2.49054,1.83593 -4.08203,1.83593 -2.43292,0 -2.34853,-0.40266 0.54493,-2.53711 3.38895,-2.49989 3.38865,-2.52223 -0.10352,-1.4414 -2.90986,0.90077 -3.14867,0.69003 -1.33008,-1.17774 0.64883,-0.6664 1.40726,-0.98566 2.15039,-1.03906 0.13871,-0.0113 0.27875,-0.0115 0.41602,-0.004 z m -7.85547,2.82227 c 2.09363,0 4.05735,8.18893 2.22266,9.26953 -0.69355,0.40895 -4.45747,1.23082 -8.36524,1.82617 -7.8974,1.20352 -11.00869,-1.68427 -6.3164,-5.86133 2.30228,-2.04948 2.46714,-1.83436 1.29492,1.68555 -1.09342,3.28297 -0.88267,3.70366 1.1289,2.25977 1.35954,-0.97576 4.13426,-1.65006 6.16602,-1.49805 2.97657,0.22261 3.53976,-0.49647 2.89648,-3.70312 -0.43891,-2.18877 -0.002,-3.97852 0.97266,-3.97852 z m -176.01953,2.32812 c 0.44398,0.0741 0.5779,0.88521 0.45117,2.48633 -0.32655,4.13337 -0.6206,4.36463 -2.28711,1.79492 -0.6551,-1.01019 -0.34418,-2.64407 0.69141,-3.63085 0.4981,-0.47494 0.87803,-0.69507 1.14453,-0.6504 z m 191.15039,6.4043 h 0.002 c 0.21392,0.0189 0.54076,0.14802 0.96289,0.39649 3.08251,1.81557 2.55022,3.25243 -3.32226,8.97656 -3.78637,3.69074 -4.69974,5.53447 -3.10157,6.2539 1.24615,0.56138 0.47099,0.70239 -1.72265,0.31446 -3.57797,-0.63254 -4.82473,0.69357 -4.19922,4.46875 0.38313,2.31099 -2.61397,1.31394 -6.54688,-2.17774 -2.13399,-1.89471 -3.8789,-4.1127 -3.8789,-4.92968 0,-3.13134 2.20763,-6.77358 3.60742,-5.94922 0.80549,0.47437 1.9657,0.0887 2.57812,-0.85547 1.94246,-2.99516 6.22461,-1.85183 6.22461,1.66211 0,1.85839 0.79645,3.38086 1.77149,3.38086 0.97512,0 1.77344,-1.47575 1.77344,-3.2793 0,-1.80359 0.79636,-3.74984 1.77148,-4.32422 0.97512,-0.57392 1.78786,-0.05 1.80078,1.16797 0.0189,1.65207 0.44015,1.59081 1.65625,-0.24219 0.89598,-1.3494 1.15787,-3.17767 0.58399,-4.0625 -0.35906,-0.55321 -0.31546,-0.83166 0.0391,-0.80078 z m -41.88281,3.53906 c 0.30349,-0.0654 0.38498,0.97242 0.44726,3.25586 0.0684,2.50043 -0.67144,5.01551 -1.64648,5.58985 -2.11658,1.24652 -2.11658,-2.06413 0,-6.75782 0.59542,-1.32 0.9636,-2.03713 1.19922,-2.08789 z m -4.74414,1.24414 c 0.97511,0 1.77148,0.75827 1.77148,1.6875 0,0.92931 -0.79637,1.68946 -1.77148,1.68946 -0.97508,0 -1.77539,-0.76015 -1.77539,-1.68946 0,-0.92923 0.80031,-1.6875 1.77539,-1.6875 z m 10.59765,0.13477 c 0.41828,-0.003 0.89817,0.17201 1.45508,0.5 0.90837,0.5348 1.43534,2.84363 1.17188,5.13281 -0.42479,3.6895 -0.0178,3.99636 3.56054,2.69922 3.32372,-1.20427 4.3792,-0.74654 5.96875,2.57813 1.2161,2.54328 1.29845,4.41035 0.22461,5.04297 -0.93827,0.55251 -1.70508,0.1076 -1.70508,-0.99024 0,-1.49469 -0.66322,-1.47273 -2.63867,0.0898 -2.13324,1.68715 -2.84287,1.57668 -3.70898,-0.57421 -0.58912,-1.46317 -2.59998,-3.12089 -4.4668,-3.68555 -2.50662,-0.7581 -3.17835,-2.15432 -2.57227,-5.33984 0.73078,-3.84019 1.45444,-5.44455 2.71094,-5.45313 z m -5.19726,10.65234 c 2.73142,0.0669 5.17845,1.45061 4.1875,2.97852 -0.56614,0.87258 -0.0666,2.69373 1.11132,4.04687 1.1782,1.35315 1.69389,2.46094 1.14454,2.46094 -0.5497,0 -1.5262,-0.81211 -2.16993,-1.80469 -0.64361,-0.99265 -2.27383,-1.40143 -3.62304,-0.9082 -1.34895,0.49331 -3.24662,-0.51879 -4.21875,-2.25 -1.32382,-2.35714 -1.10814,-3.38983 0.85937,-4.10937 0.8572,-0.31333 1.79857,-0.43603 2.70899,-0.41407 z m 228.95703,1.25977 c 0.30463,0.0847 0.8648,0.73322 1.64843,2.01758 1.03427,1.69587 1.50923,3.44001 1.05274,3.875 -0.45615,0.4354 -1.32953,-0.4473 -1.9375,-1.95703 -1.06923,-2.65531 -1.27138,-4.07713 -0.76367,-3.93555 z m -16.95313,1.49609 c 1.28686,-0.14022 2.42969,1.71757 2.42969,5.04102 0,2.78766 -0.29939,5.06836 -0.66797,5.06836 -2.03535,0 -4.89846,-5.39928 -4.01953,-7.58203 0.6604,-1.63994 1.48562,-2.44284 2.25781,-2.52735 z m -178.82812,0.85547 c 0.68927,0.10243 1.42815,1.16486 2.88867,3.28906 2.84666,4.14025 2.81132,4.27739 -1.0918,4.30079 -2.21639,0.0113 -5.06206,0.64827 -6.32226,1.41015 -1.26021,0.76192 -2.98596,3.60214 -3.83594,6.31055 -0.84987,2.70845 -1.61363,3.64766 -1.69727,2.08789 -0.0835,-1.5597 -1.35273,-3.97828 -2.81836,-5.375 -2.37104,-2.25952 -2.27311,-2.65763 0.88672,-3.61328 1.95315,-0.59104 3.55078,-1.82664 3.55078,-2.74805 0,-0.92126 0.74405,-1.23812 1.65235,-0.70312 0.90841,0.53487 2.79347,-0.58447 4.1914,-2.48633 1.26305,-1.71848 1.9064,-2.57539 2.59571,-2.47266 z m -33.23438,5.16602 h 0.002 c 2.18528,0.0813 2.5022,1.75336 -0.0566,3.25976 -0.991,0.58341 -1.3442,1.76787 -0.78321,2.63282 1.4287,2.20293 0.15379,1.96048 -2.3789,-0.45313 -3.01448,-2.87267 -2.65075,-4.2062 1.41992,-5.2207 0.69078,-0.17235 1.29257,-0.23841 1.79687,-0.21875 z m 5.22461,4.50195 h 0.002 c 0.33638,0.0265 0.70734,0.1048 1.09961,0.24805 1.54239,0.56387 3.13734,1.02539 3.54493,1.02539 0.40777,0 0.74218,1.09661 0.74218,2.43555 0,2.72695 -2.5107,4.74834 -4.0625,3.26953 -0.55668,-0.53042 -0.53235,-2.15584 0.0508,-3.61133 0.70303,-1.74607 0.36099,-2.22993 -1.00781,-1.42383 -1.14081,0.67192 -2.07422,0.3337 -2.07422,-0.75 0,-0.82673 0.69568,-1.26672 1.70508,-1.19336 z m 24.99414,1.27344 c 0.91763,0 1.66992,0.76025 1.66992,1.68945 0,0.92924 -1.24557,1.69141 -2.76562,1.69141 -1.52032,0 -2.27058,-0.76217 -1.66797,-1.69141 0.60246,-0.9292 1.84627,-1.68945 2.76367,-1.68945 z m -2.04297,5.33984 c 0.7208,0.0265 1.58185,0.4041 2.29297,1.08203 2.67855,2.55258 1.1841,3.97747 -2.12695,2.02735 -1.4061,-0.82817 -1.96737,-2.06838 -1.24805,-2.75391 0.26986,-0.25701 0.64966,-0.36983 1.08203,-0.35547 z m -8.72265,4.16211 c 0.20258,-0.0189 0.40315,-0.0189 0.59961,0 0.22526,0.0265 0.44686,0.0753 0.66211,0.1543 2.33472,0.85376 2.2138,1.40266 -0.80079,3.69922 -1.94697,1.48327 -4.18326,4.97796 -4.96874,7.76562 -1.29162,4.58438 -1.49347,4.7026 -2.1211,1.23828 l -0.69336,-3.83203 -5.1914,3.52344 -5.18946,3.52344 v -4.19922 c 0,-2.30892 -0.99996,-4.53626 -2.21875,-4.95117 -3.09634,-1.05381 -0.86202,-2.90351 4.65821,-3.85743 3.34752,-0.57838 4.65039,-0.0867 4.65039,1.76172 0,3.85746 3.10452,3.09119 6.29882,-1.55468 1.36377,-1.98354 2.89706,-3.12542 4.31446,-3.26954 z m 149.83008,0.6875 c 0.975,0 2.97095,0.73598 4.43359,1.63672 1.4626,0.90077 1.86176,1.64063 0.88672,1.64062 -0.97508,0 -2.97096,-0.73985 -4.4336,-1.64062 -1.4626,-0.90074 -1.86183,-1.63672 -0.88671,-1.63672 z m -166.66602,4.04492 c -0.9309,0.0714 -1.05327,1.00891 -0.0312,2.57813 0.65254,1.00634 2.01369,1.34009 3.02539,0.74414 1.19119,-0.70144 1.00839,-1.57111 -0.51562,-2.46875 -1.06689,-0.62827 -1.9142,-0.89683 -2.47266,-0.85352 z m 31.62891,0.0293 c 1.49661,0.20069 2.9077,3.61265 2.93359,8.12109 0.0189,3.0265 -0.90634,4.64453 -2.64844,4.64453 -2.23835,0 -2.31075,-0.55872 -0.44336,-3.42968 1.82098,-2.8001 1.78164,-3.69817 -0.21289,-4.88086 -1.36558,-0.80977 -1.85365,-2.35534 -1.10742,-3.50586 0.47006,-0.7245 0.97958,-1.01623 1.47852,-0.94922 z m -9.17578,1.45312 c 2.39583,0.0439 2.56092,0.61557 0.90624,3.14063 -1.87062,2.85453 -2.10659,2.87413 -3.08398,0.21875 -0.95913,-2.60564 -1.24794,-2.56836 -3.07031,0.42578 -1.10612,1.8172 -2.0323,2.44808 -2.0625,1.40039 -0.0726,-2.56645 3.70832,-5.24865 7.31055,-5.18555 z M 557,540.79688 c 0.69283,0.0113 1.90937,0.48321 3.56836,1.48437 1.33761,0.80753 2.11434,2.37445 1.72656,3.48242 -0.45551,1.30144 -1.8826,0.77252 -4.03515,-1.49414 -2.11594,-2.22807 -2.4146,-3.4908 -1.25977,-3.47265 z m -158.77148,3.80859 c 0.336,-0.004 0.57605,0.0301 0.68554,0.13672 0.4023,0.38301 -1.70275,1.50583 -4.67773,2.49414 -2.97494,0.98653 -5.41016,1.43542 -5.41016,0.99609 0,-0.99794 7.05148,-3.5616 9.40235,-3.62695 z m 46.34179,1.79297 c 0.28347,-0.0265 0.62277,0.0618 0.98828,0.27539 0.97508,0.57399 1.77344,1.37928 1.77344,1.78906 0,0.40985 -0.79836,0.74609 -1.77344,0.74609 -0.97511,0 -1.77343,-0.8051 -1.77343,-1.78906 0,-0.61497 0.31286,-0.97692 0.78515,-1.02148 z m 6.58594,3.35351 c 0.33827,-0.0499 1.11808,0.54671 2.38086,1.75 1.46264,1.39378 2.6582,2.9671 2.6582,3.49805 0,2.10474 -3.23086,0.80668 -4.24219,-1.70508 -0.93644,-2.32531 -1.23133,-3.47407 -0.79687,-3.54297 z m -35.20508,1.30664 c -0.23433,0.0507 -0.0566,0.70662 0.46875,2.02344 0.66584,1.66617 1.65924,2.60409 2.20508,2.08399 0.5458,-0.52037 5.5e-4,-1.88324 -1.21094,-3.0293 -0.65658,-0.62128 -1.09645,-0.98293 -1.33789,-1.06445 -0.0506,-0.0113 -0.0905,-0.0268 -0.12305,-0.0117 z m 23.24414,0.46094 h 0.002 c 0.61097,0.0451 1.04101,0.72719 1.04101,1.8125 0,1.45032 1.49724,2.63477 3.33008,2.63477 1.83076,0 4.32328,1.13931 5.53711,2.5332 1.33255,1.52995 1.47529,2.5332 0.36328,2.5332 -1.01329,0 -2.30614,-0.94785 -2.875,-2.10937 -0.82734,-1.68949 -1.24106,-1.68949 -2.06836,0 -1.582,3.23044 -3.51152,2.53527 -5.70508,-2.05274 -1.24841,-2.61074 -1.35536,-4.53784 -0.28515,-5.16797 0.23406,-0.13756 0.45666,-0.19714 0.66015,-0.18359 z m -16.68359,1.06836 c -0.97504,0 -1.77149,0.76033 -1.77149,1.68945 0,0.92928 0.79645,1.6875 1.77149,1.6875 0.97512,0 1.77344,-0.75822 1.77344,-1.6875 0,-0.92912 -0.79832,-1.68945 -1.77344,-1.68945 z m -13.29492,0.14453 c -1.9502,-0.0499 -4.7424,0.64426 -6.20508,1.54492 -2.36383,1.45558 -2.36383,1.62747 0,1.54493 1.46268,-0.0499 4.25488,-0.74627 6.20508,-1.54493 l 3.54297,-1.45312 z m 127.54101,2.11328 c 0.28309,-0.0264 0.62468,0.0622 0.99024,0.27539 0.97508,0.574 1.77148,1.37937 1.77148,1.78907 0,0.40981 -0.7964,0.74414 -1.77148,0.74414 -0.97512,0 -1.77149,-0.80315 -1.77149,-1.78711 0,-0.61501 0.30968,-0.97693 0.78125,-1.02149 z m -366.58398,0.17774 c 0.32315,-0.0113 0.79518,0.0803 1.38672,0.29687 1.51332,0.5531 2.75,1.3067 2.75,1.67188 0,1.36826 -3.37885,0.59783 -4.41993,-1.00781 -0.38814,-0.59861 -0.25651,-0.9346 0.28321,-0.96094 z m 285.91601,2.63086 c 1.03257,0 1.87891,0.76022 1.87891,1.68945 0,0.9292 -0.3511,1.68945 -0.78125,1.68945 -0.43022,0 -1.27427,-0.76025 -1.87695,-1.68945 -0.60246,-0.92923 -0.25331,-1.68945 0.77929,-1.68945 z m -280.27734,0.93164 c 1.35303,-0.13493 2.92259,0.8555 3.85156,2.50976 2.22951,3.96991 -1.37565,4.62009 -4.83203,0.8711 -1.68503,-1.82782 -1.59673,-2.5177 0.41602,-3.25391 0.18179,-0.0669 0.3712,-0.10805 0.56445,-0.12695 z m 232.27344,0.74218 c -1.36963,0.0748 -2.87497,0.88118 -2.82617,2.12891 0.22148,5.69314 -0.71975,8.02539 -3.24024,8.02539 -1.5202,0 -2.24709,0.7951 -1.61523,1.76953 0.78311,1.2073 1.95912,1.13316 3.69336,-0.23828 1.39944,-1.10679 3.12232,-1.4215 3.83007,-0.69726 0.70772,0.72423 0.33654,1.64359 -0.82812,2.04101 -1.16436,0.39753 -1.64609,1.89225 -1.07031,3.32227 1.36535,3.39073 5.83981,-6.28975 4.95703,-10.72461 -0.33714,-1.69202 -0.67547,-3.64485 -0.75,-4.3418 -0.10243,-0.95936 -1.08521,-1.34373 -2.15039,-1.28516 z m 6.78906,5.08594 c -1.34071,0 -1.30639,0.60013 0.10742,1.94727 1.54254,1.46997 1.20053,2.96549 -1.39453,6.10937 -1.89052,2.29047 -2.94686,4.92173 -2.34766,5.84571 0.59929,0.92383 -0.0154,2.34321 -1.35546,3.15429 -1.91381,1.15525 -1.74606,1.48046 0.77148,1.5 2.32116,0.0189 3.05891,-1.03005 2.6582,-3.77539 -0.35754,-2.45291 0.28001,-3.63565 1.79493,-3.33593 1.3608,0.26909 1.82333,-0.34408 1.10156,-1.45704 -0.68497,-1.05611 -0.31918,-2.46546 0.81445,-3.13281 2.40329,-1.41536 0.69654,-6.85547 -2.15039,-6.85547 z m 30.15625,8.61914 -0.35742,0.27735 0.58594,-0.10157 c -0.085,-0.0567 -0.16225,-0.11215 -0.22461,-0.17187 -0.001,-10e-4 -0.004,-0.002 -0.004,-0.004 z m -23.60352,0.47266 c -0.21165,-0.004 -0.44372,0.0567 -0.6875,0.19922 -0.97511,0.57396 -1.77539,1.75842 -1.77539,2.63281 0,0.87432 0.80028,1.5918 1.77539,1.5918 0.97512,0 1.77149,-1.18604 1.77149,-2.63477 0,-1.08646 -0.44793,-1.76223 -1.08399,-1.78906 z m -18.21093,2.73437 c -0.86132,0 -1.99505,1.56128 -2.51953,3.47266 -0.78259,2.85192 -0.50337,3.11963 1.56445,1.48438 2.8204,-2.23057 3.34631,-4.95704 0.95508,-4.95704 z m 31.4707,0.043 c -0.13191,-0.0438 -0.57257,0.26999 -1.33789,0.93946 -1.1497,1.00565 -1.57783,3.09752 -0.95508,4.64648 1.24203,3.08239 3.53589,3.67177 5.07227,1.30274 0.53949,-0.83184 -0.26271,-1.96609 -1.78125,-2.52149 -1.59402,-0.58276 -2.22853,-1.90891 -1.50196,-3.13477 0.46061,-0.7774 0.63559,-1.18589 0.50391,-1.23242 z m 38.82617,2.625 c 1.18787,-0.0499 1.47031,0.51532 0.9668,1.76563 -0.52354,1.30046 -0.13401,3.30534 0.86719,4.45508 1.35609,1.55716 0.78694,2.08789 -2.23438,2.08789 -2.87354,0 -3.75885,-0.73709 -3.03711,-2.5293 0.80508,-1.99933 -0.0191,-1.88148 -3.92969,0.56055 -4.79436,2.99429 -4.92588,2.99382 -4.28125,-0.004 0.39175,-1.82287 1.91318,-2.88993 3.70313,-2.59766 1.67108,0.27326 3.03711,-0.20827 3.03711,-1.07031 0,-0.86143 1.53692,-1.94818 3.41406,-2.41601 0.60182,-0.15005 1.09812,-0.2357 1.49414,-0.25196 z m 14.97071,0.83203 c 0.22978,0.004 0.41997,0.0724 0.55664,0.20313 0.54583,0.52036 -0.43756,1.46319 -2.18555,2.09766 -2.52669,0.91687 -2.73005,0.72323 -0.99219,-0.94532 0.90191,-0.86596 1.93212,-1.37489 2.6211,-1.35547 z m -6.1836,1.83789 c 0.32769,0.004 0.26131,0.4008 -0.22851,1.15626 -0.69582,1.07288 -0.37394,1.94921 0.71679,1.94921 1.08998,0 1.48741,0.76018 0.88477,1.68946 -0.60246,0.92919 -1.84612,1.6914 -2.76367,1.6914 -2.36342,0 -2.07477,-4.62908 0.3789,-6.07422 0.47516,-0.28006 0.815,-0.41655 1.01172,-0.41211 z m -84.71484,4.79493 c 1.0326,0 1.8789,0.76224 1.8789,1.6914 0,0.92928 -0.35106,1.68946 -0.78125,1.68946 -0.43022,0 -1.27434,-0.76018 -1.87695,-1.68946 -0.60246,-0.92916 -0.25361,-1.6914 0.7793,-1.6914 z m 38.93945,2.53515 c -2.83211,0 -5.15039,0.56902 -5.15039,1.26563 0,0.69698 1.94794,1.26953 4.32812,1.26953 2.3802,0 4.69645,-0.57274 5.14844,-1.26953 0.45219,-0.69691 -1.49402,-1.26563 -4.32617,-1.26563 z m 9.98242,1.51563 c -0.53986,0.12326 -1.22375,0.9624 -1.72265,2.21094 -0.96201,2.40786 -0.75868,2.60341 0.99218,0.94726 1.21161,-1.14595 1.7587,-2.50912 1.21289,-3.0293 -0.13592,-0.12914 -0.30128,-0.16896 -0.48046,-0.1289 z m 16.22071,3.60937 c -0.085,-0.0113 -0.29036,0.56324 -0.66211,1.72461 -0.50317,1.57251 -1.97101,2.28404 -3.52735,1.71485 -3.2078,-1.17298 -6.32911,0.37094 -4.97461,2.45898 1.51064,2.32929 8.80511,-0.93218 9.09961,-4.06836 0.11301,-1.20752 0.14912,-1.81481 0.0645,-1.83008 z m 19.41015,6.07618 c -0.12737,0.0113 -0.2658,0.0926 -0.41211,0.23242 -0.58526,0.55759 -0.54098,1.82342 0.10156,2.81445 1.48967,2.29671 2.22162,2.26815 3.78907,-0.14844 0.7838,-1.20843 0.48704,-1.49109 -0.78125,-0.74414 -1.12573,0.66286 -2.04688,0.27178 -2.04688,-0.86719 0,-0.85432 -0.26858,-1.33526 -0.65039,-1.2871 z m -87.0039,0.33203 c 0.47198,0.0264 0.78515,0.35854 0.78515,0.93945 0,0.92927 -0.80035,2.15812 -1.77539,2.73242 -0.97512,0.57388 -1.77148,0.28531 -1.77148,-0.64453 0,-0.92923 0.79636,-2.16012 1.77148,-2.73437 0.36586,-0.21582 0.70711,-0.30885 0.99024,-0.29297 z m 108.54296,0.44336 c -0.1474,-0.0113 -0.30304,0.0113 -0.46484,0.0703 -1.18564,0.43325 -1.73428,2.87733 -1.29101,5.75586 1.06317,6.9027 3.85874,6.3158 3.58007,-0.75196 -0.12434,-3.1635 -0.79218,-4.98558 -1.82422,-5.07421 z m -348.92382,12.52148 c 0.94431,-4e-5 1.25661,1.13943 0.69531,2.5332 -0.56107,1.39393 -1.33195,2.53321 -1.71484,2.53321 -0.38314,0 -0.69922,-1.13928 -0.69922,-2.53321 0,-1.39377 0.7742,-2.5332 1.71875,-2.5332 z M 144.7832,627.625 c 1.80817,0.0438 2.68117,1.33918 1.78516,3.56445 -0.54705,1.35897 -1.7943,1.99934 -2.77148,1.42383 -1.12899,-0.66504 -1.34729,0.81949 -0.59766,4.07227 0.76335,3.312 0.41104,5.57251 -0.99805,6.40234 -1.4894,0.87719 -1.83916,0.43794 -1.10351,-1.38867 0.61897,-1.53766 -0.003,-3.06724 -1.47071,-3.60352 -3.72752,-1.36312 -3.10848,-6.64776 1.07032,-9.13476 1.57889,-0.93959 3.00113,-1.36323 4.08593,-1.33594 z m -12.23828,37.0332 v 0.002 c 0.28309,-0.0265 0.6228,0.063 0.98828,0.27539 0.97508,0.5746 1.77539,1.37725 1.77539,1.78711 0,0.40977 -0.80031,0.74609 -1.77539,0.74609 -0.97508,0 -1.77148,-0.80495 -1.77148,-1.78906 0,-0.61497 0.31155,-0.97689 0.7832,-1.02149 z m -5.11133,55.73633 v 0.002 c 0.47199,0.0265 0.78321,0.35618 0.78321,0.9375 0,0.92928 -0.79828,2.15816 -1.77344,2.73243 -0.97504,0.57403 -1.77344,0.28275 -1.77344,-0.64649 0,-0.92919 0.7984,-2.15816 1.77344,-2.73242 0.36586,-0.21619 0.70711,-0.30884 0.99023,-0.29297 z"
         transform="scale(0.26458333)" />
    </g>
    <g
       aria-label="Whey"
       id="text15432"
       style="font-size:42.3741px;line-height:1.25;font-family:'Black Ops One';-inkscape-font-specification:'Black Ops One';fill:#ffffff;stroke-width:0.441396" />
  </g>
</svg>
