<?xml version="1.0" encoding="UTF-8" standalone="no"?>
<!-- Created with Inkscape (http://www.inkscape.org/) -->

<svg
   width="45mm"
   height="36mm"
   viewBox="0 0 45 36"
   version="1.1"
   id="svg5118"
   inkscape:version="1.1.1 (3bf5ae0d25, 2021-09-20)"
   sodipodi:docname="portfolio_icon.svg"
   xmlns:inkscape="http://www.inkscape.org/namespaces/inkscape"
   xmlns:sodipodi="http://sodipodi.sourceforge.net/DTD/sodipodi-0.dtd"
   xmlns="http://www.w3.org/2000/svg"
   xmlns:svg="http://www.w3.org/2000/svg">
  <sodipodi:namedview
     id="namedview5120"
     pagecolor="#ffffff"
     bordercolor="#111111"
     borderopacity="1"
     inkscape:pageshadow="0"
     inkscape:pageopacity="0"
     inkscape:pagecheckerboard="1"
     inkscape:document-units="mm"
     showgrid="false"
     inkscape:zoom="1.2810466"
     inkscape:cx="418.01759"
     inkscape:cy="-2.7321411"
     inkscape:window-width="1920"
     inkscape:window-height="1027"
     inkscape:window-x="-8"
     inkscape:window-y="-8"
     inkscape:window-maximized="1"
     inkscape:current-layer="layer1" />
  <defs
     id="defs5115" />
  <g
     inkscape:label="Layer 1"
     inkscape:groupmode="layer"
     id="layer1">
    <path
       style="fill:#000000;stroke-width:0.148171"
       d="m 0.14861378,35.839914 c 0,-0.102204 0.45539537,-2.082003 1.01199742,-4.399549 0.5565921,-2.317548 1.0446395,-4.406851 1.0845509,-4.642895 0.039892,-0.236046 0.2350161,-1.072932 0.4335781,-1.859749 0.198562,-0.786816 0.7851763,-3.233102 1.3035808,-5.436188 1.0600939,-4.505105 1.1235463,-4.704465 1.6772131,-5.270138 0.8554841,-0.874038 0.8610394,-0.874868 6.3741169,-0.952866 l 5.055761,-0.07152 1.715834,-5.1269557 C 19.748955,5.2602248 20.616091,2.8693395 20.73223,2.7669718 20.848359,2.6646041 22.15193,2.0001574 23.629055,1.2904244 L 26.314729,8.2969704e-7 32.530136,1.8138621 c 5.294589,1.545133 6.221612,1.8558371 6.257279,2.0971888 0.02305,0.155829 -0.638947,2.3111679 -1.471028,4.7896398 l -1.512889,4.5063153 3.631324,0.07152 3.631333,0.07153 0.63743,0.393569 c 0.83607,0.516206 1.319951,1.384405 1.295533,2.324525 -0.01024,0.393409 -0.25901,1.713116 -0.552869,2.932681 -0.293859,1.219566 -0.778833,3.247407 -1.077725,4.506314 -0.298882,1.258907 -0.652765,2.739553 -0.786398,3.290325 -0.133632,0.550771 -0.676336,2.836116 -1.205998,5.078543 l -0.963044,4.077142 -20.13223,0.03629 C 3.8525894,36.019069 0.14861378,35.991521 0.14861378,35.839914 Z M 20.022346,12.991709 c -0.158247,-0.464749 0.272416,-0.486575 1.581571,-0.08016 1.114869,0.346102 1.379385,0.372032 3.419967,0.335281 L 27.235527,13.207 24.089454,12.299257 c -1.730343,-0.499255 -3.240573,-0.991992 -3.356061,-1.094966 -0.230988,-0.205942 -0.115686,-0.500798 0.195843,-0.500798 0.10886,0 2.187029,0.579384 4.618155,1.287519 l 4.420223,1.287518 h 2.177267 2.177258 L 35.73779,9.0418914 C 36.516407,6.7117401 37.123075,4.7321815 37.085961,4.64287 37.034151,4.5181296 26.926559,1.4762795 26.563919,1.4762795 c -0.04403,0 -0.279301,0.6115711 -0.522817,1.359047 C 25.797595,3.5828021 25.47138,4.3163558 25.316186,4.465445 25.039525,4.7312096 25.002244,4.7272413 23.410823,4.2626874 22.518077,4.002084 21.760086,3.8157257 21.72639,3.8485608 c -0.04718,0.045949 -2.720563,7.9516232 -3.104212,9.1796192 -0.06727,0.215391 0.03181,0.25035 0.709806,0.25035 0.718818,0 0.779443,-0.02518 0.690362,-0.286821 z m 6.925419,-1.92699 C 23.919663,10.174693 21.386266,9.3622272 21.317988,9.2592406 21.157367,9.0169851 21.277308,8.8435482 21.604676,8.8444924 c 0.395902,0.00118 11.38843,3.2347466 11.569174,3.4032336 0.225905,0.210584 0.01093,0.460618 -0.384201,0.446897 -0.18494,-0.0064 -2.813781,-0.739879 -5.841884,-1.629904 z M 28.616734,9.4790204 C 26.084529,8.73506 23.546563,7.9953584 22.976821,7.8352384 22.171325,7.6088632 21.940918,7.4836966 21.940918,7.2724952 c 0,-0.1493882 0.05417,-0.3028216 0.120374,-0.3409619 0.119823,-0.069027 11.643136,3.2452787 11.803698,3.3949537 0.164088,0.152958 -0.101423,0.519956 -0.370864,0.512625 -0.150367,-0.004 -2.345187,-0.616134 -4.877392,-1.3600916 z M 28.1947,7.3012928 C 23.610665,5.9515959 22.554787,5.5939447 22.554787,5.3909207 c 0,-0.1373844 0.05969,-0.2841688 0.132608,-0.3261886 0.07289,-0.042022 2.749018,0.6850525 5.946852,1.6157181 4.968473,1.445979 5.814225,1.7315903 5.814225,1.9634711 0,0.1682126 -0.116661,0.2802083 -0.306929,0.294653 C 33.972727,8.9513913 31.296646,8.2146139 28.1947,7.3012928 Z M 0.00216704,18.492795 C -0.00768275,4.9797985 -0.00945571,5.025467 0.59571562,4.5923304 c 0.35137169,-0.2514739 15.32858438,-0.2514739 15.68083238,0 0.30163,0.2153345 1.827698,2.4688904 1.827698,2.6989725 0,0.092055 -0.381216,1.2803337 -0.847131,2.6406132 l -0.847142,2.4732329 -4.792772,0.04328 c -4.5630937,0.0412 -4.8222911,0.05802 -5.4086591,0.350778 -0.769919,0.384408 -1.4055952,0.97013 -1.760237,1.621903 -0.1504063,0.276417 -0.5540509,1.693532 -0.8969912,3.149143 -0.3429402,1.455611 -0.8686927,3.676579 -1.1683431,4.935486 -0.2996505,1.258907 -0.907166,3.817849 -1.3500423,5.686539 -0.44287631,1.868689 -0.85385896,3.397617 -0.91329261,3.397617 -0.0593943,0 -0.1122975,-5.893696 -0.11746865,-13.097103 z M 37.134146,12.192361 c 0,-0.301735 1.079843,-3.5284993 1.233598,-3.686206 0.190742,-0.1956398 1.037026,0.3515488 1.493929,0.9659312 0.357429,0.4806339 0.426446,0.7369598 0.472662,1.7554568 l 0.05408,1.19264 h -1.627156 c -1.386063,0 -1.627147,-0.03375 -1.627147,-0.227822 z"
       id="path5308"
       sodipodi:nodetypes="ssssssscssscssscccsssssscssssscsssscccsssssssssssscsssssssscssssssssssssscssssssssscssccscc" />
  </g>
</svg>
